<mxfile host="app.diagrams.net" modified="2023-06-17T02:34:40.087Z" agent="Mozilla/5.0 (Windows NT 10.0; Win64; x64) AppleWebKit/537.36 (KHTML, like Gecko) Chrome/114.0.0.0 Safari/537.36" etag="2jQbC0FH1_vmgkivIP4S" version="21.4.0" type="device">
  <diagram name="Trang-1" id="ygDwdsPAyH6q1nseMmqg">
    <mxGraphModel dx="1635" dy="1046" grid="0" gridSize="10" guides="1" tooltips="1" connect="1" arrows="1" fold="1" page="0" pageScale="1" pageWidth="827" pageHeight="1169" math="0" shadow="0">
      <root>
        <mxCell id="0" />
        <mxCell id="1" parent="0" />
        <mxCell id="8iSrLDqyOfxP9rjxSmcS-1" value="" style="rounded=0;whiteSpace=wrap;html=1;" parent="1" vertex="1">
          <mxGeometry x="-82" y="-60.5" width="217" height="137" as="geometry" />
        </mxCell>
        <mxCell id="8iSrLDqyOfxP9rjxSmcS-2" value="&lt;b&gt;Menu Quản Trị&lt;/b&gt;" style="text;html=1;strokeColor=none;fillColor=none;align=center;verticalAlign=middle;whiteSpace=wrap;rounded=0;" parent="1" vertex="1">
          <mxGeometry x="-17.5" y="-52.5" width="88" height="30" as="geometry" />
        </mxCell>
        <mxCell id="8iSrLDqyOfxP9rjxSmcS-3" value="&lt;u&gt;Quản lý danh mục&lt;/u&gt;" style="text;html=1;strokeColor=none;fillColor=none;align=center;verticalAlign=middle;whiteSpace=wrap;rounded=0;" parent="1" vertex="1">
          <mxGeometry x="-75" y="-19.5" width="102" height="30" as="geometry" />
        </mxCell>
        <mxCell id="8iSrLDqyOfxP9rjxSmcS-4" value="" style="rounded=0;whiteSpace=wrap;html=1;" parent="1" vertex="1">
          <mxGeometry x="240" y="-69" width="600" height="156" as="geometry" />
        </mxCell>
        <mxCell id="8iSrLDqyOfxP9rjxSmcS-5" value="&lt;b&gt;Danh Sách Danh Mục&lt;/b&gt;" style="text;html=1;strokeColor=none;fillColor=none;align=center;verticalAlign=middle;whiteSpace=wrap;rounded=0;" parent="1" vertex="1">
          <mxGeometry x="370" y="-60" width="195" height="30" as="geometry" />
        </mxCell>
        <mxCell id="8iSrLDqyOfxP9rjxSmcS-147" style="edgeStyle=orthogonalEdgeStyle;rounded=0;orthogonalLoop=1;jettySize=auto;html=1;entryX=0.972;entryY=0.006;entryDx=0;entryDy=0;entryPerimeter=0;fillColor=#e51400;strokeColor=#FF0000;strokeWidth=3;" parent="1" source="8iSrLDqyOfxP9rjxSmcS-6" target="8iSrLDqyOfxP9rjxSmcS-109" edge="1">
          <mxGeometry relative="1" as="geometry" />
        </mxCell>
        <mxCell id="8iSrLDqyOfxP9rjxSmcS-6" value="Thêm mới" style="rounded=1;whiteSpace=wrap;html=1;" parent="1" vertex="1">
          <mxGeometry x="245" y="-34" width="92" height="26" as="geometry" />
        </mxCell>
        <mxCell id="8iSrLDqyOfxP9rjxSmcS-79" value="ID" style="text;html=1;strokeColor=none;fillColor=none;align=center;verticalAlign=middle;whiteSpace=wrap;rounded=0;" parent="1" vertex="1">
          <mxGeometry x="248" y="-8" width="36" height="32" as="geometry" />
        </mxCell>
        <mxCell id="8iSrLDqyOfxP9rjxSmcS-84" value="Avatar" style="text;html=1;strokeColor=none;fillColor=none;align=center;verticalAlign=middle;whiteSpace=wrap;rounded=0;" parent="1" vertex="1">
          <mxGeometry x="350" y="-8" width="39" height="32" as="geometry" />
        </mxCell>
        <mxCell id="8iSrLDqyOfxP9rjxSmcS-85" value="Description" style="text;html=1;strokeColor=none;fillColor=none;align=center;verticalAlign=middle;whiteSpace=wrap;rounded=0;" parent="1" vertex="1">
          <mxGeometry x="415" y="-8" width="39" height="32" as="geometry" />
        </mxCell>
        <mxCell id="8iSrLDqyOfxP9rjxSmcS-86" value="Status" style="text;html=1;strokeColor=none;fillColor=none;align=center;verticalAlign=middle;whiteSpace=wrap;rounded=0;" parent="1" vertex="1">
          <mxGeometry x="477" y="-8" width="39" height="32" as="geometry" />
        </mxCell>
        <mxCell id="8iSrLDqyOfxP9rjxSmcS-87" value="Created_at" style="text;html=1;strokeColor=none;fillColor=none;align=center;verticalAlign=middle;whiteSpace=wrap;rounded=0;" parent="1" vertex="1">
          <mxGeometry x="540" y="-8" width="39" height="32" as="geometry" />
        </mxCell>
        <mxCell id="8iSrLDqyOfxP9rjxSmcS-90" value="Updated_at" style="text;html=1;strokeColor=none;fillColor=none;align=center;verticalAlign=middle;whiteSpace=wrap;rounded=0;" parent="1" vertex="1">
          <mxGeometry x="622" y="-8" width="39" height="32" as="geometry" />
        </mxCell>
        <mxCell id="8iSrLDqyOfxP9rjxSmcS-94" value="Name" style="text;html=1;strokeColor=none;fillColor=none;align=center;verticalAlign=middle;whiteSpace=wrap;rounded=0;" parent="1" vertex="1">
          <mxGeometry x="303" y="-8" width="39" height="32" as="geometry" />
        </mxCell>
        <mxCell id="8iSrLDqyOfxP9rjxSmcS-95" value="1" style="text;html=1;strokeColor=none;fillColor=none;align=center;verticalAlign=middle;whiteSpace=wrap;rounded=0;" parent="1" vertex="1">
          <mxGeometry x="248" y="31" width="36" height="32" as="geometry" />
        </mxCell>
        <mxCell id="8iSrLDqyOfxP9rjxSmcS-96" value="DienThoai" style="text;html=1;strokeColor=none;fillColor=none;align=center;verticalAlign=middle;whiteSpace=wrap;rounded=0;" parent="1" vertex="1">
          <mxGeometry x="299" y="31" width="36" height="32" as="geometry" />
        </mxCell>
        <mxCell id="8iSrLDqyOfxP9rjxSmcS-98" value="abc" style="text;html=1;strokeColor=none;fillColor=none;align=center;verticalAlign=middle;whiteSpace=wrap;rounded=0;" parent="1" vertex="1">
          <mxGeometry x="409" y="33" width="36" height="32" as="geometry" />
        </mxCell>
        <mxCell id="8iSrLDqyOfxP9rjxSmcS-99" value="active" style="text;html=1;strokeColor=none;fillColor=none;align=center;verticalAlign=middle;whiteSpace=wrap;rounded=0;" parent="1" vertex="1">
          <mxGeometry x="478.5" y="33" width="36" height="32" as="geometry" />
        </mxCell>
        <mxCell id="8iSrLDqyOfxP9rjxSmcS-100" value="19/1/2023&amp;nbsp; 19:19:19" style="text;html=1;strokeColor=none;fillColor=none;align=center;verticalAlign=middle;whiteSpace=wrap;rounded=0;" parent="1" vertex="1">
          <mxGeometry x="541.5" y="33" width="36" height="32" as="geometry" />
        </mxCell>
        <mxCell id="8iSrLDqyOfxP9rjxSmcS-103" value="19/1/2023&amp;nbsp; 19:19:19" style="text;html=1;strokeColor=none;fillColor=none;align=center;verticalAlign=middle;whiteSpace=wrap;rounded=0;" parent="1" vertex="1">
          <mxGeometry x="620" y="31" width="36" height="32" as="geometry" />
        </mxCell>
        <mxCell id="8iSrLDqyOfxP9rjxSmcS-104" value="" style="verticalLabelPosition=bottom;verticalAlign=top;html=1;shape=mxgraph.basic.x" parent="1" vertex="1">
          <mxGeometry x="352" y="28" width="37" height="31" as="geometry" />
        </mxCell>
        <mxCell id="8iSrLDqyOfxP9rjxSmcS-156" style="edgeStyle=orthogonalEdgeStyle;rounded=0;orthogonalLoop=1;jettySize=auto;html=1;exitX=0.5;exitY=1;exitDx=0;exitDy=0;strokeColor=#FF0000;strokeWidth=3;" parent="1" source="8iSrLDqyOfxP9rjxSmcS-106" edge="1">
          <mxGeometry relative="1" as="geometry">
            <mxPoint x="784" y="161.79998779296875" as="targetPoint" />
          </mxGeometry>
        </mxCell>
        <mxCell id="8iSrLDqyOfxP9rjxSmcS-106" value="Xoa" style="rounded=1;whiteSpace=wrap;html=1;" parent="1" vertex="1">
          <mxGeometry x="764" y="33.5" width="40" height="26" as="geometry" />
        </mxCell>
        <mxCell id="8iSrLDqyOfxP9rjxSmcS-154" style="edgeStyle=orthogonalEdgeStyle;rounded=0;orthogonalLoop=1;jettySize=auto;html=1;entryX=1;entryY=0;entryDx=0;entryDy=0;strokeColor=#FF0000;strokeWidth=3;" parent="1" source="8iSrLDqyOfxP9rjxSmcS-108" target="8iSrLDqyOfxP9rjxSmcS-133" edge="1">
          <mxGeometry relative="1" as="geometry">
            <Array as="points">
              <mxPoint x="715" y="126" />
            </Array>
          </mxGeometry>
        </mxCell>
        <mxCell id="8iSrLDqyOfxP9rjxSmcS-108" value="Sua" style="rounded=1;whiteSpace=wrap;html=1;" parent="1" vertex="1">
          <mxGeometry x="705" y="34" width="40" height="26" as="geometry" />
        </mxCell>
        <mxCell id="8iSrLDqyOfxP9rjxSmcS-109" value="" style="rounded=0;whiteSpace=wrap;html=1;" parent="1" vertex="1">
          <mxGeometry x="-82" y="132" width="270" height="325" as="geometry" />
        </mxCell>
        <mxCell id="8iSrLDqyOfxP9rjxSmcS-110" value="&lt;b&gt;Thêm Danh Mục Mới&lt;/b&gt;" style="text;html=1;strokeColor=none;fillColor=none;align=center;verticalAlign=middle;whiteSpace=wrap;rounded=0;" parent="1" vertex="1">
          <mxGeometry x="-10" y="145" width="126" height="30" as="geometry" />
        </mxCell>
        <mxCell id="8iSrLDqyOfxP9rjxSmcS-111" value="Name" style="text;html=1;strokeColor=none;fillColor=none;align=center;verticalAlign=middle;whiteSpace=wrap;rounded=0;" parent="1" vertex="1">
          <mxGeometry x="-67" y="175" width="39" height="32" as="geometry" />
        </mxCell>
        <mxCell id="8iSrLDqyOfxP9rjxSmcS-112" value="" style="rounded=1;whiteSpace=wrap;html=1;" parent="1" vertex="1">
          <mxGeometry x="15" y="184" width="104" height="23" as="geometry" />
        </mxCell>
        <mxCell id="8iSrLDqyOfxP9rjxSmcS-113" value="Avatar" style="text;html=1;strokeColor=none;fillColor=none;align=center;verticalAlign=middle;whiteSpace=wrap;rounded=0;" parent="1" vertex="1">
          <mxGeometry x="-67" y="224" width="39" height="32" as="geometry" />
        </mxCell>
        <mxCell id="8iSrLDqyOfxP9rjxSmcS-115" value="Description" style="text;html=1;strokeColor=none;fillColor=none;align=center;verticalAlign=middle;whiteSpace=wrap;rounded=0;" parent="1" vertex="1">
          <mxGeometry x="-67" y="262" width="39" height="32" as="geometry" />
        </mxCell>
        <mxCell id="8iSrLDqyOfxP9rjxSmcS-116" value="Status" style="text;html=1;strokeColor=none;fillColor=none;align=center;verticalAlign=middle;whiteSpace=wrap;rounded=0;" parent="1" vertex="1">
          <mxGeometry x="-67" y="300" width="39" height="32" as="geometry" />
        </mxCell>
        <mxCell id="8iSrLDqyOfxP9rjxSmcS-121" value="" style="rounded=1;whiteSpace=wrap;html=1;" parent="1" vertex="1">
          <mxGeometry x="12" y="271" width="104" height="23" as="geometry" />
        </mxCell>
        <mxCell id="8iSrLDqyOfxP9rjxSmcS-122" value="" style="rounded=1;whiteSpace=wrap;html=1;" parent="1" vertex="1">
          <mxGeometry x="12" y="304.5" width="104" height="23" as="geometry" />
        </mxCell>
        <mxCell id="8iSrLDqyOfxP9rjxSmcS-123" value="" style="verticalLabelPosition=bottom;verticalAlign=top;html=1;shape=mxgraph.basic.x" parent="1" vertex="1">
          <mxGeometry x="12" y="224" width="37" height="31" as="geometry" />
        </mxCell>
        <mxCell id="8iSrLDqyOfxP9rjxSmcS-125" value="Chon tep" style="rounded=1;whiteSpace=wrap;html=1;" parent="1" vertex="1">
          <mxGeometry x="57" y="240" width="69" height="15" as="geometry" />
        </mxCell>
        <mxCell id="8iSrLDqyOfxP9rjxSmcS-151" style="edgeStyle=orthogonalEdgeStyle;rounded=0;orthogonalLoop=1;jettySize=auto;html=1;exitX=0.5;exitY=1;exitDx=0;exitDy=0;strokeWidth=3;strokeColor=#FF0000;" parent="1" source="8iSrLDqyOfxP9rjxSmcS-126" edge="1">
          <mxGeometry relative="1" as="geometry">
            <mxPoint x="263.60003662109375" y="92.99993896484375" as="targetPoint" />
          </mxGeometry>
        </mxCell>
        <mxCell id="8iSrLDqyOfxP9rjxSmcS-126" value="Save" style="rounded=1;whiteSpace=wrap;html=1;" parent="1" vertex="1">
          <mxGeometry x="-62" y="362" width="40" height="26" as="geometry" />
        </mxCell>
        <mxCell id="8iSrLDqyOfxP9rjxSmcS-152" style="edgeStyle=orthogonalEdgeStyle;rounded=0;orthogonalLoop=1;jettySize=auto;html=1;exitX=1;exitY=0.5;exitDx=0;exitDy=0;entryX=0;entryY=1;entryDx=0;entryDy=0;strokeColor=#FF0000;strokeWidth=3;" parent="1" source="8iSrLDqyOfxP9rjxSmcS-127" target="8iSrLDqyOfxP9rjxSmcS-4" edge="1">
          <mxGeometry relative="1" as="geometry" />
        </mxCell>
        <mxCell id="8iSrLDqyOfxP9rjxSmcS-127" value="Back" style="rounded=1;whiteSpace=wrap;html=1;" parent="1" vertex="1">
          <mxGeometry x="49" y="362" width="40" height="26" as="geometry" />
        </mxCell>
        <mxCell id="8iSrLDqyOfxP9rjxSmcS-129" value="" style="rounded=0;whiteSpace=wrap;html=1;" parent="1" vertex="1">
          <mxGeometry x="691" y="169" width="247" height="68" as="geometry" />
        </mxCell>
        <mxCell id="8iSrLDqyOfxP9rjxSmcS-130" value="Bạn có chắc chắn xóa" style="text;html=1;strokeColor=none;fillColor=none;align=center;verticalAlign=middle;whiteSpace=wrap;rounded=0;" parent="1" vertex="1">
          <mxGeometry x="743" y="171.5" width="134" height="30" as="geometry" />
        </mxCell>
        <mxCell id="8iSrLDqyOfxP9rjxSmcS-157" style="edgeStyle=orthogonalEdgeStyle;rounded=0;orthogonalLoop=1;jettySize=auto;html=1;exitX=0.5;exitY=1;exitDx=0;exitDy=0;entryX=0.85;entryY=1.003;entryDx=0;entryDy=0;entryPerimeter=0;strokeColor=#FF0000;strokeWidth=3;" parent="1" source="8iSrLDqyOfxP9rjxSmcS-131" target="8iSrLDqyOfxP9rjxSmcS-4" edge="1">
          <mxGeometry relative="1" as="geometry">
            <Array as="points">
              <mxPoint x="742" y="248" />
              <mxPoint x="671" y="248" />
              <mxPoint x="671" y="144" />
              <mxPoint x="750" y="144" />
            </Array>
          </mxGeometry>
        </mxCell>
        <mxCell id="8iSrLDqyOfxP9rjxSmcS-131" value="OK" style="rounded=1;whiteSpace=wrap;html=1;" parent="1" vertex="1">
          <mxGeometry x="722" y="201.5" width="40" height="26" as="geometry" />
        </mxCell>
        <mxCell id="8iSrLDqyOfxP9rjxSmcS-158" style="edgeStyle=orthogonalEdgeStyle;rounded=0;orthogonalLoop=1;jettySize=auto;html=1;strokeColor=#FF0000;strokeWidth=3;" parent="1" source="8iSrLDqyOfxP9rjxSmcS-132" target="8iSrLDqyOfxP9rjxSmcS-4" edge="1">
          <mxGeometry relative="1" as="geometry">
            <Array as="points">
              <mxPoint x="878" y="9" />
            </Array>
          </mxGeometry>
        </mxCell>
        <mxCell id="8iSrLDqyOfxP9rjxSmcS-132" value="Hủy" style="rounded=1;whiteSpace=wrap;html=1;" parent="1" vertex="1">
          <mxGeometry x="843" y="201.5" width="40" height="26" as="geometry" />
        </mxCell>
        <mxCell id="8iSrLDqyOfxP9rjxSmcS-133" value="" style="rounded=0;whiteSpace=wrap;html=1;" parent="1" vertex="1">
          <mxGeometry x="303" y="126" width="270" height="325" as="geometry" />
        </mxCell>
        <mxCell id="8iSrLDqyOfxP9rjxSmcS-134" value="&lt;b&gt;Sửa&lt;/b&gt;" style="text;html=1;strokeColor=none;fillColor=none;align=center;verticalAlign=middle;whiteSpace=wrap;rounded=0;" parent="1" vertex="1">
          <mxGeometry x="375" y="139" width="126" height="30" as="geometry" />
        </mxCell>
        <mxCell id="8iSrLDqyOfxP9rjxSmcS-135" value="Name" style="text;html=1;strokeColor=none;fillColor=none;align=center;verticalAlign=middle;whiteSpace=wrap;rounded=0;" parent="1" vertex="1">
          <mxGeometry x="318" y="169" width="39" height="32" as="geometry" />
        </mxCell>
        <mxCell id="8iSrLDqyOfxP9rjxSmcS-136" value="" style="rounded=1;whiteSpace=wrap;html=1;" parent="1" vertex="1">
          <mxGeometry x="400" y="178" width="104" height="23" as="geometry" />
        </mxCell>
        <mxCell id="8iSrLDqyOfxP9rjxSmcS-137" value="Avatar" style="text;html=1;strokeColor=none;fillColor=none;align=center;verticalAlign=middle;whiteSpace=wrap;rounded=0;" parent="1" vertex="1">
          <mxGeometry x="318" y="218" width="39" height="32" as="geometry" />
        </mxCell>
        <mxCell id="8iSrLDqyOfxP9rjxSmcS-138" value="Description" style="text;html=1;strokeColor=none;fillColor=none;align=center;verticalAlign=middle;whiteSpace=wrap;rounded=0;" parent="1" vertex="1">
          <mxGeometry x="318" y="256" width="39" height="32" as="geometry" />
        </mxCell>
        <mxCell id="8iSrLDqyOfxP9rjxSmcS-139" value="Status" style="text;html=1;strokeColor=none;fillColor=none;align=center;verticalAlign=middle;whiteSpace=wrap;rounded=0;" parent="1" vertex="1">
          <mxGeometry x="318" y="294" width="39" height="32" as="geometry" />
        </mxCell>
        <mxCell id="8iSrLDqyOfxP9rjxSmcS-140" value="" style="rounded=1;whiteSpace=wrap;html=1;" parent="1" vertex="1">
          <mxGeometry x="397" y="265" width="104" height="23" as="geometry" />
        </mxCell>
        <mxCell id="8iSrLDqyOfxP9rjxSmcS-141" value="" style="rounded=1;whiteSpace=wrap;html=1;" parent="1" vertex="1">
          <mxGeometry x="397" y="298.5" width="104" height="23" as="geometry" />
        </mxCell>
        <mxCell id="8iSrLDqyOfxP9rjxSmcS-142" value="" style="verticalLabelPosition=bottom;verticalAlign=top;html=1;shape=mxgraph.basic.x" parent="1" vertex="1">
          <mxGeometry x="397" y="218" width="37" height="31" as="geometry" />
        </mxCell>
        <mxCell id="8iSrLDqyOfxP9rjxSmcS-143" value="Chon tep" style="rounded=1;whiteSpace=wrap;html=1;" parent="1" vertex="1">
          <mxGeometry x="442" y="234" width="69" height="15" as="geometry" />
        </mxCell>
        <mxCell id="8iSrLDqyOfxP9rjxSmcS-155" style="edgeStyle=orthogonalEdgeStyle;rounded=0;orthogonalLoop=1;jettySize=auto;html=1;exitX=0.5;exitY=1;exitDx=0;exitDy=0;entryX=0.641;entryY=0.997;entryDx=0;entryDy=0;entryPerimeter=0;strokeColor=#FF0000;strokeWidth=3;" parent="1" source="8iSrLDqyOfxP9rjxSmcS-144" target="8iSrLDqyOfxP9rjxSmcS-4" edge="1">
          <mxGeometry relative="1" as="geometry" />
        </mxCell>
        <mxCell id="8iSrLDqyOfxP9rjxSmcS-144" value="Save" style="rounded=1;whiteSpace=wrap;html=1;" parent="1" vertex="1">
          <mxGeometry x="323" y="356" width="40" height="26" as="geometry" />
        </mxCell>
        <mxCell id="8iSrLDqyOfxP9rjxSmcS-146" value="" style="endArrow=classic;html=1;rounded=0;exitX=1;exitY=0.5;exitDx=0;exitDy=0;entryX=0;entryY=0.462;entryDx=0;entryDy=0;entryPerimeter=0;fillColor=#e51400;strokeColor=#FF0000;strokeWidth=3;" parent="1" source="8iSrLDqyOfxP9rjxSmcS-3" target="8iSrLDqyOfxP9rjxSmcS-4" edge="1">
          <mxGeometry width="50" height="50" relative="1" as="geometry">
            <mxPoint x="73" y="-12.5" as="sourcePoint" />
            <mxPoint x="123" y="-62.5" as="targetPoint" />
          </mxGeometry>
        </mxCell>
        <mxCell id="8iSrLDqyOfxP9rjxSmcS-159" value="" style="rounded=0;whiteSpace=wrap;html=1;" parent="1" vertex="1">
          <mxGeometry x="1020" y="-66.5" width="217" height="137" as="geometry" />
        </mxCell>
        <mxCell id="8iSrLDqyOfxP9rjxSmcS-160" value="&lt;b&gt;Menu Quản Trị&lt;/b&gt;" style="text;html=1;strokeColor=none;fillColor=none;align=center;verticalAlign=middle;whiteSpace=wrap;rounded=0;" parent="1" vertex="1">
          <mxGeometry x="1084.5" y="-58.5" width="88" height="30" as="geometry" />
        </mxCell>
        <mxCell id="8iSrLDqyOfxP9rjxSmcS-161" value="&lt;u&gt;Quản lý sản phẩm&lt;/u&gt;" style="text;html=1;strokeColor=none;fillColor=none;align=center;verticalAlign=middle;whiteSpace=wrap;rounded=0;" parent="1" vertex="1">
          <mxGeometry x="1027" y="-25.5" width="102" height="30" as="geometry" />
        </mxCell>
        <mxCell id="8iSrLDqyOfxP9rjxSmcS-162" value="" style="rounded=0;whiteSpace=wrap;html=1;" parent="1" vertex="1">
          <mxGeometry x="1342" y="-75" width="816" height="156" as="geometry" />
        </mxCell>
        <mxCell id="8iSrLDqyOfxP9rjxSmcS-163" value="&lt;b&gt;Danh Sách Sản Phẩm&lt;/b&gt;" style="text;html=1;strokeColor=none;fillColor=none;align=center;verticalAlign=middle;whiteSpace=wrap;rounded=0;" parent="1" vertex="1">
          <mxGeometry x="1544.5" y="-66.5" width="195" height="30" as="geometry" />
        </mxCell>
        <mxCell id="8iSrLDqyOfxP9rjxSmcS-164" style="edgeStyle=orthogonalEdgeStyle;rounded=0;orthogonalLoop=1;jettySize=auto;html=1;entryX=0.972;entryY=0.006;entryDx=0;entryDy=0;entryPerimeter=0;fillColor=#e51400;strokeColor=#FF0000;strokeWidth=3;" parent="1" source="8iSrLDqyOfxP9rjxSmcS-165" target="8iSrLDqyOfxP9rjxSmcS-184" edge="1">
          <mxGeometry relative="1" as="geometry" />
        </mxCell>
        <mxCell id="8iSrLDqyOfxP9rjxSmcS-165" value="Thêm mới" style="rounded=1;whiteSpace=wrap;html=1;" parent="1" vertex="1">
          <mxGeometry x="1347" y="-40" width="92" height="26" as="geometry" />
        </mxCell>
        <mxCell id="8iSrLDqyOfxP9rjxSmcS-166" value="ID" style="text;html=1;strokeColor=none;fillColor=none;align=center;verticalAlign=middle;whiteSpace=wrap;rounded=0;" parent="1" vertex="1">
          <mxGeometry x="1350" y="-14" width="36" height="32" as="geometry" />
        </mxCell>
        <mxCell id="8iSrLDqyOfxP9rjxSmcS-167" value="Avatar" style="text;html=1;strokeColor=none;fillColor=none;align=center;verticalAlign=middle;whiteSpace=wrap;rounded=0;" parent="1" vertex="1">
          <mxGeometry x="1526" y="-14" width="39" height="32" as="geometry" />
        </mxCell>
        <mxCell id="8iSrLDqyOfxP9rjxSmcS-168" value="Title" style="text;html=1;strokeColor=none;fillColor=none;align=center;verticalAlign=middle;whiteSpace=wrap;rounded=0;" parent="1" vertex="1">
          <mxGeometry x="1471" y="-16" width="39" height="32" as="geometry" />
        </mxCell>
        <mxCell id="8iSrLDqyOfxP9rjxSmcS-169" value="Status" style="text;html=1;strokeColor=none;fillColor=none;align=center;verticalAlign=middle;whiteSpace=wrap;rounded=0;" parent="1" vertex="1">
          <mxGeometry x="1812" y="-14" width="39" height="32" as="geometry" />
        </mxCell>
        <mxCell id="8iSrLDqyOfxP9rjxSmcS-170" value="Created_at" style="text;html=1;strokeColor=none;fillColor=none;align=center;verticalAlign=middle;whiteSpace=wrap;rounded=0;" parent="1" vertex="1">
          <mxGeometry x="1876" y="-14" width="39" height="32" as="geometry" />
        </mxCell>
        <mxCell id="8iSrLDqyOfxP9rjxSmcS-171" value="Updated_at" style="text;html=1;strokeColor=none;fillColor=none;align=center;verticalAlign=middle;whiteSpace=wrap;rounded=0;" parent="1" vertex="1">
          <mxGeometry x="1958" y="-14" width="39" height="32" as="geometry" />
        </mxCell>
        <mxCell id="8iSrLDqyOfxP9rjxSmcS-172" value="Category Name" style="text;html=1;strokeColor=none;fillColor=none;align=center;verticalAlign=middle;whiteSpace=wrap;rounded=0;" parent="1" vertex="1">
          <mxGeometry x="1398" y="-14" width="39" height="32" as="geometry" />
        </mxCell>
        <mxCell id="8iSrLDqyOfxP9rjxSmcS-173" value="1" style="text;html=1;strokeColor=none;fillColor=none;align=center;verticalAlign=middle;whiteSpace=wrap;rounded=0;" parent="1" vertex="1">
          <mxGeometry x="1350" y="25" width="36" height="32" as="geometry" />
        </mxCell>
        <mxCell id="8iSrLDqyOfxP9rjxSmcS-174" value="DienThoai" style="text;html=1;strokeColor=none;fillColor=none;align=center;verticalAlign=middle;whiteSpace=wrap;rounded=0;" parent="1" vertex="1">
          <mxGeometry x="1401" y="25" width="36" height="32" as="geometry" />
        </mxCell>
        <mxCell id="8iSrLDqyOfxP9rjxSmcS-175" value="Iphone 14" style="text;html=1;strokeColor=none;fillColor=none;align=center;verticalAlign=middle;whiteSpace=wrap;rounded=0;" parent="1" vertex="1">
          <mxGeometry x="1465" y="25" width="36" height="32" as="geometry" />
        </mxCell>
        <mxCell id="8iSrLDqyOfxP9rjxSmcS-176" value="active" style="text;html=1;strokeColor=none;fillColor=none;align=center;verticalAlign=middle;whiteSpace=wrap;rounded=0;" parent="1" vertex="1">
          <mxGeometry x="1813.5" y="27" width="36" height="32" as="geometry" />
        </mxCell>
        <mxCell id="8iSrLDqyOfxP9rjxSmcS-177" value="19/1/2023&amp;nbsp; 19:19:19" style="text;html=1;strokeColor=none;fillColor=none;align=center;verticalAlign=middle;whiteSpace=wrap;rounded=0;" parent="1" vertex="1">
          <mxGeometry x="1877.5" y="27" width="36" height="32" as="geometry" />
        </mxCell>
        <mxCell id="8iSrLDqyOfxP9rjxSmcS-178" value="19/1/2023&amp;nbsp; 19:19:19" style="text;html=1;strokeColor=none;fillColor=none;align=center;verticalAlign=middle;whiteSpace=wrap;rounded=0;" parent="1" vertex="1">
          <mxGeometry x="1956" y="25" width="36" height="32" as="geometry" />
        </mxCell>
        <mxCell id="8iSrLDqyOfxP9rjxSmcS-179" value="" style="verticalLabelPosition=bottom;verticalAlign=top;html=1;shape=mxgraph.basic.x" parent="1" vertex="1">
          <mxGeometry x="1528" y="22" width="37" height="31" as="geometry" />
        </mxCell>
        <mxCell id="8iSrLDqyOfxP9rjxSmcS-220" style="edgeStyle=orthogonalEdgeStyle;rounded=0;orthogonalLoop=1;jettySize=auto;html=1;entryX=0.841;entryY=-0.088;entryDx=0;entryDy=0;entryPerimeter=0;strokeColor=#FF0000;strokeWidth=3;" parent="1" source="8iSrLDqyOfxP9rjxSmcS-181" target="8iSrLDqyOfxP9rjxSmcS-199" edge="1">
          <mxGeometry relative="1" as="geometry" />
        </mxCell>
        <mxCell id="8iSrLDqyOfxP9rjxSmcS-181" value="Xoa" style="rounded=1;whiteSpace=wrap;html=1;" parent="1" vertex="1">
          <mxGeometry x="2079" y="26" width="40" height="26" as="geometry" />
        </mxCell>
        <mxCell id="8iSrLDqyOfxP9rjxSmcS-182" style="edgeStyle=orthogonalEdgeStyle;rounded=0;orthogonalLoop=1;jettySize=auto;html=1;entryX=1;entryY=0;entryDx=0;entryDy=0;strokeColor=#FF0000;strokeWidth=3;" parent="1" source="8iSrLDqyOfxP9rjxSmcS-183" target="8iSrLDqyOfxP9rjxSmcS-205" edge="1">
          <mxGeometry relative="1" as="geometry">
            <Array as="points">
              <mxPoint x="2035" y="120" />
            </Array>
          </mxGeometry>
        </mxCell>
        <mxCell id="8iSrLDqyOfxP9rjxSmcS-183" value="Sua" style="rounded=1;whiteSpace=wrap;html=1;" parent="1" vertex="1">
          <mxGeometry x="2012" y="27" width="40" height="26" as="geometry" />
        </mxCell>
        <mxCell id="8iSrLDqyOfxP9rjxSmcS-184" value="" style="rounded=0;whiteSpace=wrap;html=1;" parent="1" vertex="1">
          <mxGeometry x="1020" y="126" width="270" height="438" as="geometry" />
        </mxCell>
        <mxCell id="8iSrLDqyOfxP9rjxSmcS-185" value="&lt;b&gt;Thêm&amp;nbsp;&lt;/b&gt;" style="text;html=1;strokeColor=none;fillColor=none;align=center;verticalAlign=middle;whiteSpace=wrap;rounded=0;" parent="1" vertex="1">
          <mxGeometry x="1092" y="139" width="126" height="30" as="geometry" />
        </mxCell>
        <mxCell id="8iSrLDqyOfxP9rjxSmcS-186" value="Category Name" style="text;html=1;strokeColor=none;fillColor=none;align=center;verticalAlign=middle;whiteSpace=wrap;rounded=0;" parent="1" vertex="1">
          <mxGeometry x="1028" y="169" width="89" height="32" as="geometry" />
        </mxCell>
        <mxCell id="8iSrLDqyOfxP9rjxSmcS-187" value="" style="rounded=1;whiteSpace=wrap;html=1;" parent="1" vertex="1">
          <mxGeometry x="1120" y="175" width="104" height="23" as="geometry" />
        </mxCell>
        <mxCell id="8iSrLDqyOfxP9rjxSmcS-188" value="Avatar" style="text;html=1;strokeColor=none;fillColor=none;align=center;verticalAlign=middle;whiteSpace=wrap;rounded=0;" parent="1" vertex="1">
          <mxGeometry x="1030" y="247" width="39" height="32" as="geometry" />
        </mxCell>
        <mxCell id="8iSrLDqyOfxP9rjxSmcS-189" value="Summary" style="text;html=1;strokeColor=none;fillColor=none;align=left;verticalAlign=middle;whiteSpace=wrap;rounded=0;" parent="1" vertex="1">
          <mxGeometry x="1026" y="422" width="39" height="36" as="geometry" />
        </mxCell>
        <mxCell id="8iSrLDqyOfxP9rjxSmcS-190" value="Status" style="text;html=1;strokeColor=none;fillColor=none;align=center;verticalAlign=middle;whiteSpace=wrap;rounded=0;" parent="1" vertex="1">
          <mxGeometry x="1029" y="462" width="39" height="32" as="geometry" />
        </mxCell>
        <mxCell id="8iSrLDqyOfxP9rjxSmcS-191" value="" style="rounded=1;whiteSpace=wrap;html=1;" parent="1" vertex="1">
          <mxGeometry x="1114" y="433" width="104" height="23" as="geometry" />
        </mxCell>
        <mxCell id="8iSrLDqyOfxP9rjxSmcS-192" value="" style="rounded=1;whiteSpace=wrap;html=1;" parent="1" vertex="1">
          <mxGeometry x="1114" y="466.5" width="104" height="23" as="geometry" />
        </mxCell>
        <mxCell id="8iSrLDqyOfxP9rjxSmcS-193" value="" style="verticalLabelPosition=bottom;verticalAlign=top;html=1;shape=mxgraph.basic.x" parent="1" vertex="1">
          <mxGeometry x="1109" y="247" width="37" height="31" as="geometry" />
        </mxCell>
        <mxCell id="8iSrLDqyOfxP9rjxSmcS-194" value="Chon tep" style="rounded=1;whiteSpace=wrap;html=1;" parent="1" vertex="1">
          <mxGeometry x="1154" y="263" width="69" height="15" as="geometry" />
        </mxCell>
        <mxCell id="8iSrLDqyOfxP9rjxSmcS-195" style="edgeStyle=orthogonalEdgeStyle;rounded=0;orthogonalLoop=1;jettySize=auto;html=1;exitX=0.5;exitY=1;exitDx=0;exitDy=0;strokeWidth=3;strokeColor=#FF0000;" parent="1" source="8iSrLDqyOfxP9rjxSmcS-196" edge="1">
          <mxGeometry relative="1" as="geometry">
            <mxPoint x="1365.6000366210938" y="86.99993896484375" as="targetPoint" />
          </mxGeometry>
        </mxCell>
        <mxCell id="8iSrLDqyOfxP9rjxSmcS-196" value="Save" style="rounded=1;whiteSpace=wrap;html=1;" parent="1" vertex="1">
          <mxGeometry x="1027" y="510" width="40" height="26" as="geometry" />
        </mxCell>
        <mxCell id="8iSrLDqyOfxP9rjxSmcS-197" style="edgeStyle=orthogonalEdgeStyle;rounded=0;orthogonalLoop=1;jettySize=auto;html=1;exitX=1;exitY=0.5;exitDx=0;exitDy=0;entryX=0;entryY=1;entryDx=0;entryDy=0;strokeColor=#FF0000;strokeWidth=3;" parent="1" source="8iSrLDqyOfxP9rjxSmcS-198" target="8iSrLDqyOfxP9rjxSmcS-162" edge="1">
          <mxGeometry relative="1" as="geometry" />
        </mxCell>
        <mxCell id="8iSrLDqyOfxP9rjxSmcS-198" value="Back" style="rounded=1;whiteSpace=wrap;html=1;" parent="1" vertex="1">
          <mxGeometry x="1146" y="510" width="40" height="26" as="geometry" />
        </mxCell>
        <mxCell id="8iSrLDqyOfxP9rjxSmcS-199" value="" style="rounded=0;whiteSpace=wrap;html=1;" parent="1" vertex="1">
          <mxGeometry x="1891" y="271" width="247" height="68" as="geometry" />
        </mxCell>
        <mxCell id="8iSrLDqyOfxP9rjxSmcS-200" value="Bạn có chắc chắn xóa" style="text;html=1;strokeColor=none;fillColor=none;align=center;verticalAlign=middle;whiteSpace=wrap;rounded=0;" parent="1" vertex="1">
          <mxGeometry x="1943" y="273.5" width="134" height="30" as="geometry" />
        </mxCell>
        <mxCell id="8iSrLDqyOfxP9rjxSmcS-222" style="edgeStyle=orthogonalEdgeStyle;rounded=0;orthogonalLoop=1;jettySize=auto;html=1;entryX=0.735;entryY=1.031;entryDx=0;entryDy=0;entryPerimeter=0;strokeColor=#FF0000;strokeWidth=3;" parent="1" source="8iSrLDqyOfxP9rjxSmcS-202" target="8iSrLDqyOfxP9rjxSmcS-162" edge="1">
          <mxGeometry relative="1" as="geometry" />
        </mxCell>
        <mxCell id="8iSrLDqyOfxP9rjxSmcS-202" value="OK" style="rounded=1;whiteSpace=wrap;html=1;" parent="1" vertex="1">
          <mxGeometry x="1922" y="303.5" width="40" height="26" as="geometry" />
        </mxCell>
        <mxCell id="8iSrLDqyOfxP9rjxSmcS-203" style="edgeStyle=orthogonalEdgeStyle;rounded=0;orthogonalLoop=1;jettySize=auto;html=1;strokeColor=#FF0000;strokeWidth=3;" parent="1" source="8iSrLDqyOfxP9rjxSmcS-204" target="8iSrLDqyOfxP9rjxSmcS-162" edge="1">
          <mxGeometry relative="1" as="geometry">
            <Array as="points">
              <mxPoint x="1980" y="3" />
            </Array>
          </mxGeometry>
        </mxCell>
        <mxCell id="8iSrLDqyOfxP9rjxSmcS-204" value="Hủy" style="rounded=1;whiteSpace=wrap;html=1;" parent="1" vertex="1">
          <mxGeometry x="2043" y="303.5" width="40" height="26" as="geometry" />
        </mxCell>
        <mxCell id="8iSrLDqyOfxP9rjxSmcS-205" value="" style="rounded=0;whiteSpace=wrap;html=1;" parent="1" vertex="1">
          <mxGeometry x="1405" y="120" width="270" height="441" as="geometry" />
        </mxCell>
        <mxCell id="8iSrLDqyOfxP9rjxSmcS-206" value="&lt;b&gt;Sửa&lt;/b&gt;" style="text;html=1;strokeColor=none;fillColor=none;align=center;verticalAlign=middle;whiteSpace=wrap;rounded=0;" parent="1" vertex="1">
          <mxGeometry x="1477" y="128" width="126" height="30" as="geometry" />
        </mxCell>
        <mxCell id="8iSrLDqyOfxP9rjxSmcS-216" style="edgeStyle=orthogonalEdgeStyle;rounded=0;orthogonalLoop=1;jettySize=auto;html=1;exitX=0.5;exitY=1;exitDx=0;exitDy=0;entryX=0.641;entryY=0.997;entryDx=0;entryDy=0;entryPerimeter=0;strokeColor=#FF0000;strokeWidth=3;" parent="1" source="8iSrLDqyOfxP9rjxSmcS-217" target="8iSrLDqyOfxP9rjxSmcS-162" edge="1">
          <mxGeometry relative="1" as="geometry" />
        </mxCell>
        <mxCell id="8iSrLDqyOfxP9rjxSmcS-217" value="Save" style="rounded=1;whiteSpace=wrap;html=1;" parent="1" vertex="1">
          <mxGeometry x="1437" y="510" width="40" height="26" as="geometry" />
        </mxCell>
        <mxCell id="8iSrLDqyOfxP9rjxSmcS-218" value="" style="endArrow=classic;html=1;rounded=0;exitX=1;exitY=0.5;exitDx=0;exitDy=0;entryX=0;entryY=0.462;entryDx=0;entryDy=0;entryPerimeter=0;fillColor=#e51400;strokeColor=#FF0000;strokeWidth=3;" parent="1" source="8iSrLDqyOfxP9rjxSmcS-161" target="8iSrLDqyOfxP9rjxSmcS-162" edge="1">
          <mxGeometry width="50" height="50" relative="1" as="geometry">
            <mxPoint x="1175" y="-18.5" as="sourcePoint" />
            <mxPoint x="1225" y="-68.5" as="targetPoint" />
          </mxGeometry>
        </mxCell>
        <mxCell id="8iSrLDqyOfxP9rjxSmcS-223" value="Price" style="text;html=1;strokeColor=none;fillColor=none;align=center;verticalAlign=middle;whiteSpace=wrap;rounded=0;" parent="1" vertex="1">
          <mxGeometry x="1575" y="-13" width="39" height="32" as="geometry" />
        </mxCell>
        <mxCell id="8iSrLDqyOfxP9rjxSmcS-224" value="2000" style="text;html=1;strokeColor=none;fillColor=none;align=center;verticalAlign=middle;whiteSpace=wrap;rounded=0;" parent="1" vertex="1">
          <mxGeometry x="1576.5" y="28" width="36" height="32" as="geometry" />
        </mxCell>
        <mxCell id="8iSrLDqyOfxP9rjxSmcS-225" value="0.5 kg" style="text;html=1;strokeColor=none;fillColor=none;align=center;verticalAlign=middle;whiteSpace=wrap;rounded=0;" parent="1" vertex="1">
          <mxGeometry x="1639.5" y="28" width="36" height="32" as="geometry" />
        </mxCell>
        <mxCell id="8iSrLDqyOfxP9rjxSmcS-226" value="Weight" style="text;html=1;strokeColor=none;fillColor=none;align=center;verticalAlign=middle;whiteSpace=wrap;rounded=0;" parent="1" vertex="1">
          <mxGeometry x="1638" y="-13" width="39" height="32" as="geometry" />
        </mxCell>
        <mxCell id="8iSrLDqyOfxP9rjxSmcS-227" value="Supplier" style="text;html=1;strokeColor=none;fillColor=none;align=center;verticalAlign=middle;whiteSpace=wrap;rounded=0;" parent="1" vertex="1">
          <mxGeometry x="1700" y="-13" width="39" height="32" as="geometry" />
        </mxCell>
        <mxCell id="8iSrLDqyOfxP9rjxSmcS-228" value="APPLE" style="text;html=1;strokeColor=none;fillColor=none;align=center;verticalAlign=middle;whiteSpace=wrap;rounded=0;" parent="1" vertex="1">
          <mxGeometry x="1702" y="26" width="36" height="32" as="geometry" />
        </mxCell>
        <mxCell id="8iSrLDqyOfxP9rjxSmcS-229" value="Hot" style="text;html=1;strokeColor=none;fillColor=none;align=center;verticalAlign=middle;whiteSpace=wrap;rounded=0;" parent="1" vertex="1">
          <mxGeometry x="1758" y="-13" width="39" height="32" as="geometry" />
        </mxCell>
        <mxCell id="8iSrLDqyOfxP9rjxSmcS-230" value="1" style="text;html=1;strokeColor=none;fillColor=none;align=center;verticalAlign=middle;whiteSpace=wrap;rounded=0;" parent="1" vertex="1">
          <mxGeometry x="1760" y="26" width="36" height="32" as="geometry" />
        </mxCell>
        <mxCell id="8iSrLDqyOfxP9rjxSmcS-234" value="Title" style="text;html=1;strokeColor=none;fillColor=none;align=left;verticalAlign=middle;whiteSpace=wrap;rounded=0;" parent="1" vertex="1">
          <mxGeometry x="1028.5" y="207" width="89" height="32" as="geometry" />
        </mxCell>
        <mxCell id="8iSrLDqyOfxP9rjxSmcS-235" value="" style="rounded=1;whiteSpace=wrap;html=1;" parent="1" vertex="1">
          <mxGeometry x="1118.5" y="213" width="104" height="23" as="geometry" />
        </mxCell>
        <mxCell id="8iSrLDqyOfxP9rjxSmcS-236" value="Price" style="text;html=1;strokeColor=none;fillColor=none;align=left;verticalAlign=middle;whiteSpace=wrap;rounded=0;" parent="1" vertex="1">
          <mxGeometry x="1030" y="295.5" width="89" height="32" as="geometry" />
        </mxCell>
        <mxCell id="8iSrLDqyOfxP9rjxSmcS-237" value="" style="rounded=1;whiteSpace=wrap;html=1;" parent="1" vertex="1">
          <mxGeometry x="1115" y="301.5" width="104" height="23" as="geometry" />
        </mxCell>
        <mxCell id="8iSrLDqyOfxP9rjxSmcS-238" value="Weight" style="text;html=1;strokeColor=none;fillColor=none;align=left;verticalAlign=middle;whiteSpace=wrap;rounded=0;" parent="1" vertex="1">
          <mxGeometry x="1030" y="327.5" width="89" height="32" as="geometry" />
        </mxCell>
        <mxCell id="8iSrLDqyOfxP9rjxSmcS-239" value="" style="rounded=1;whiteSpace=wrap;html=1;" parent="1" vertex="1">
          <mxGeometry x="1114" y="333.5" width="104" height="23" as="geometry" />
        </mxCell>
        <mxCell id="8iSrLDqyOfxP9rjxSmcS-240" value="Supplier" style="text;html=1;strokeColor=none;fillColor=none;align=left;verticalAlign=middle;whiteSpace=wrap;rounded=0;" parent="1" vertex="1">
          <mxGeometry x="1027" y="366" width="89" height="32" as="geometry" />
        </mxCell>
        <mxCell id="8iSrLDqyOfxP9rjxSmcS-241" value="" style="rounded=1;whiteSpace=wrap;html=1;" parent="1" vertex="1">
          <mxGeometry x="1114" y="372" width="104" height="23" as="geometry" />
        </mxCell>
        <mxCell id="8iSrLDqyOfxP9rjxSmcS-242" value="Description" style="text;html=1;strokeColor=none;fillColor=none;align=center;verticalAlign=middle;whiteSpace=wrap;rounded=0;" parent="1" vertex="1">
          <mxGeometry x="1035" y="395" width="39" height="36" as="geometry" />
        </mxCell>
        <mxCell id="8iSrLDqyOfxP9rjxSmcS-243" value="" style="rounded=1;whiteSpace=wrap;html=1;" parent="1" vertex="1">
          <mxGeometry x="1114" y="406" width="104" height="23" as="geometry" />
        </mxCell>
        <mxCell id="8iSrLDqyOfxP9rjxSmcS-285" value="Category Name" style="text;html=1;strokeColor=none;fillColor=none;align=center;verticalAlign=middle;whiteSpace=wrap;rounded=0;" parent="1" vertex="1">
          <mxGeometry x="1431" y="154" width="89" height="32" as="geometry" />
        </mxCell>
        <mxCell id="8iSrLDqyOfxP9rjxSmcS-286" value="" style="rounded=1;whiteSpace=wrap;html=1;" parent="1" vertex="1">
          <mxGeometry x="1523" y="160" width="104" height="23" as="geometry" />
        </mxCell>
        <mxCell id="8iSrLDqyOfxP9rjxSmcS-287" value="Avatar" style="text;html=1;strokeColor=none;fillColor=none;align=center;verticalAlign=middle;whiteSpace=wrap;rounded=0;" parent="1" vertex="1">
          <mxGeometry x="1433" y="232" width="39" height="32" as="geometry" />
        </mxCell>
        <mxCell id="8iSrLDqyOfxP9rjxSmcS-288" value="Summary" style="text;html=1;strokeColor=none;fillColor=none;align=left;verticalAlign=middle;whiteSpace=wrap;rounded=0;" parent="1" vertex="1">
          <mxGeometry x="1429" y="407" width="39" height="36" as="geometry" />
        </mxCell>
        <mxCell id="8iSrLDqyOfxP9rjxSmcS-289" value="Status" style="text;html=1;strokeColor=none;fillColor=none;align=center;verticalAlign=middle;whiteSpace=wrap;rounded=0;" parent="1" vertex="1">
          <mxGeometry x="1432" y="447" width="39" height="32" as="geometry" />
        </mxCell>
        <mxCell id="8iSrLDqyOfxP9rjxSmcS-290" value="" style="rounded=1;whiteSpace=wrap;html=1;" parent="1" vertex="1">
          <mxGeometry x="1517" y="418" width="104" height="23" as="geometry" />
        </mxCell>
        <mxCell id="8iSrLDqyOfxP9rjxSmcS-291" value="" style="rounded=1;whiteSpace=wrap;html=1;" parent="1" vertex="1">
          <mxGeometry x="1517" y="451.5" width="104" height="23" as="geometry" />
        </mxCell>
        <mxCell id="8iSrLDqyOfxP9rjxSmcS-292" value="" style="verticalLabelPosition=bottom;verticalAlign=top;html=1;shape=mxgraph.basic.x" parent="1" vertex="1">
          <mxGeometry x="1512" y="232" width="37" height="31" as="geometry" />
        </mxCell>
        <mxCell id="8iSrLDqyOfxP9rjxSmcS-293" value="Chon tep" style="rounded=1;whiteSpace=wrap;html=1;" parent="1" vertex="1">
          <mxGeometry x="1557" y="248" width="69" height="15" as="geometry" />
        </mxCell>
        <mxCell id="8iSrLDqyOfxP9rjxSmcS-294" value="Title" style="text;html=1;strokeColor=none;fillColor=none;align=left;verticalAlign=middle;whiteSpace=wrap;rounded=0;" parent="1" vertex="1">
          <mxGeometry x="1431.5" y="192" width="89" height="32" as="geometry" />
        </mxCell>
        <mxCell id="8iSrLDqyOfxP9rjxSmcS-295" value="" style="rounded=1;whiteSpace=wrap;html=1;" parent="1" vertex="1">
          <mxGeometry x="1521.5" y="198" width="104" height="23" as="geometry" />
        </mxCell>
        <mxCell id="8iSrLDqyOfxP9rjxSmcS-296" value="Price" style="text;html=1;strokeColor=none;fillColor=none;align=left;verticalAlign=middle;whiteSpace=wrap;rounded=0;" parent="1" vertex="1">
          <mxGeometry x="1433" y="280.5" width="89" height="32" as="geometry" />
        </mxCell>
        <mxCell id="8iSrLDqyOfxP9rjxSmcS-297" value="" style="rounded=1;whiteSpace=wrap;html=1;" parent="1" vertex="1">
          <mxGeometry x="1518" y="286.5" width="104" height="23" as="geometry" />
        </mxCell>
        <mxCell id="8iSrLDqyOfxP9rjxSmcS-298" value="Weight" style="text;html=1;strokeColor=none;fillColor=none;align=left;verticalAlign=middle;whiteSpace=wrap;rounded=0;" parent="1" vertex="1">
          <mxGeometry x="1433" y="312.5" width="89" height="32" as="geometry" />
        </mxCell>
        <mxCell id="8iSrLDqyOfxP9rjxSmcS-299" value="" style="rounded=1;whiteSpace=wrap;html=1;" parent="1" vertex="1">
          <mxGeometry x="1517" y="318.5" width="104" height="23" as="geometry" />
        </mxCell>
        <mxCell id="8iSrLDqyOfxP9rjxSmcS-300" value="Supplier" style="text;html=1;strokeColor=none;fillColor=none;align=left;verticalAlign=middle;whiteSpace=wrap;rounded=0;" parent="1" vertex="1">
          <mxGeometry x="1430" y="351" width="89" height="32" as="geometry" />
        </mxCell>
        <mxCell id="8iSrLDqyOfxP9rjxSmcS-301" value="" style="rounded=1;whiteSpace=wrap;html=1;" parent="1" vertex="1">
          <mxGeometry x="1517" y="357" width="104" height="23" as="geometry" />
        </mxCell>
        <mxCell id="8iSrLDqyOfxP9rjxSmcS-302" value="Description" style="text;html=1;strokeColor=none;fillColor=none;align=center;verticalAlign=middle;whiteSpace=wrap;rounded=0;" parent="1" vertex="1">
          <mxGeometry x="1438" y="380" width="39" height="36" as="geometry" />
        </mxCell>
        <mxCell id="8iSrLDqyOfxP9rjxSmcS-303" value="" style="rounded=1;whiteSpace=wrap;html=1;" parent="1" vertex="1">
          <mxGeometry x="1517" y="391" width="104" height="23" as="geometry" />
        </mxCell>
        <mxCell id="8iSrLDqyOfxP9rjxSmcS-366" value="" style="rounded=0;whiteSpace=wrap;html=1;" parent="1" vertex="1">
          <mxGeometry x="1001" y="699.5" width="217" height="137" as="geometry" />
        </mxCell>
        <mxCell id="8iSrLDqyOfxP9rjxSmcS-367" value="&lt;b&gt;Menu Quản Trị&lt;/b&gt;" style="text;html=1;strokeColor=none;fillColor=none;align=center;verticalAlign=middle;whiteSpace=wrap;rounded=0;" parent="1" vertex="1">
          <mxGeometry x="1065.5" y="707.5" width="88" height="30" as="geometry" />
        </mxCell>
        <mxCell id="8iSrLDqyOfxP9rjxSmcS-368" value="&lt;u&gt;Quản lý banner&lt;/u&gt;" style="text;html=1;strokeColor=none;fillColor=none;align=center;verticalAlign=middle;whiteSpace=wrap;rounded=0;" parent="1" vertex="1">
          <mxGeometry x="1008" y="740.5" width="102" height="30" as="geometry" />
        </mxCell>
        <mxCell id="8iSrLDqyOfxP9rjxSmcS-369" value="" style="rounded=0;whiteSpace=wrap;html=1;" parent="1" vertex="1">
          <mxGeometry x="1323" y="691" width="816" height="156" as="geometry" />
        </mxCell>
        <mxCell id="8iSrLDqyOfxP9rjxSmcS-370" value="&lt;b&gt;Danh Sách Banner&lt;/b&gt;" style="text;html=1;strokeColor=none;fillColor=none;align=center;verticalAlign=middle;whiteSpace=wrap;rounded=0;" parent="1" vertex="1">
          <mxGeometry x="1525.5" y="699.5" width="195" height="30" as="geometry" />
        </mxCell>
        <mxCell id="8iSrLDqyOfxP9rjxSmcS-371" style="edgeStyle=orthogonalEdgeStyle;rounded=0;orthogonalLoop=1;jettySize=auto;html=1;entryX=0.972;entryY=0.006;entryDx=0;entryDy=0;entryPerimeter=0;fillColor=#e51400;strokeColor=#FF0000;strokeWidth=3;" parent="1" source="8iSrLDqyOfxP9rjxSmcS-372" edge="1">
          <mxGeometry relative="1" as="geometry">
            <mxPoint x="1263.44" y="894.6279999999997" as="targetPoint" />
          </mxGeometry>
        </mxCell>
        <mxCell id="8iSrLDqyOfxP9rjxSmcS-372" value="Thêm mới" style="rounded=1;whiteSpace=wrap;html=1;" parent="1" vertex="1">
          <mxGeometry x="1328" y="726" width="92" height="26" as="geometry" />
        </mxCell>
        <mxCell id="8iSrLDqyOfxP9rjxSmcS-373" value="ID" style="text;html=1;strokeColor=none;fillColor=none;align=center;verticalAlign=middle;whiteSpace=wrap;rounded=0;" parent="1" vertex="1">
          <mxGeometry x="1331" y="752" width="36" height="32" as="geometry" />
        </mxCell>
        <mxCell id="8iSrLDqyOfxP9rjxSmcS-374" value="Avatar" style="text;html=1;strokeColor=none;fillColor=none;align=center;verticalAlign=middle;whiteSpace=wrap;rounded=0;" parent="1" vertex="1">
          <mxGeometry x="1384" y="752" width="39" height="32" as="geometry" />
        </mxCell>
        <mxCell id="8iSrLDqyOfxP9rjxSmcS-375" value="Position" style="text;html=1;strokeColor=none;fillColor=none;align=center;verticalAlign=middle;whiteSpace=wrap;rounded=0;" parent="1" vertex="1">
          <mxGeometry x="1452" y="750" width="39" height="32" as="geometry" />
        </mxCell>
        <mxCell id="8iSrLDqyOfxP9rjxSmcS-377" value="Growmax_Img" style="text;html=1;strokeColor=none;fillColor=none;align=center;verticalAlign=middle;whiteSpace=wrap;rounded=0;" parent="1" vertex="1">
          <mxGeometry x="1857" y="750" width="39" height="32" as="geometry" />
        </mxCell>
        <mxCell id="8iSrLDqyOfxP9rjxSmcS-378" value="Updated_at" style="text;html=1;strokeColor=none;fillColor=none;align=center;verticalAlign=middle;whiteSpace=wrap;rounded=0;" parent="1" vertex="1">
          <mxGeometry x="1939" y="752" width="39" height="32" as="geometry" />
        </mxCell>
        <mxCell id="8iSrLDqyOfxP9rjxSmcS-380" value="1" style="text;html=1;strokeColor=none;fillColor=none;align=center;verticalAlign=middle;whiteSpace=wrap;rounded=0;" parent="1" vertex="1">
          <mxGeometry x="1331" y="791" width="36" height="32" as="geometry" />
        </mxCell>
        <mxCell id="8iSrLDqyOfxP9rjxSmcS-382" value="2" style="text;html=1;strokeColor=none;fillColor=none;align=center;verticalAlign=middle;whiteSpace=wrap;rounded=0;" parent="1" vertex="1">
          <mxGeometry x="1446" y="791" width="36" height="32" as="geometry" />
        </mxCell>
        <mxCell id="8iSrLDqyOfxP9rjxSmcS-384" value="19/1/2023&amp;nbsp; 19:19:19" style="text;html=1;strokeColor=none;fillColor=none;align=center;verticalAlign=middle;whiteSpace=wrap;rounded=0;" parent="1" vertex="1">
          <mxGeometry x="1858.5" y="793" width="36" height="32" as="geometry" />
        </mxCell>
        <mxCell id="8iSrLDqyOfxP9rjxSmcS-385" value="19/1/2023&amp;nbsp; 19:19:19" style="text;html=1;strokeColor=none;fillColor=none;align=center;verticalAlign=middle;whiteSpace=wrap;rounded=0;" parent="1" vertex="1">
          <mxGeometry x="1937" y="791" width="36" height="32" as="geometry" />
        </mxCell>
        <mxCell id="8iSrLDqyOfxP9rjxSmcS-386" value="" style="verticalLabelPosition=bottom;verticalAlign=top;html=1;shape=mxgraph.basic.x" parent="1" vertex="1">
          <mxGeometry x="1386" y="788" width="37" height="31" as="geometry" />
        </mxCell>
        <mxCell id="8iSrLDqyOfxP9rjxSmcS-387" style="edgeStyle=orthogonalEdgeStyle;rounded=0;orthogonalLoop=1;jettySize=auto;html=1;entryX=0.841;entryY=-0.088;entryDx=0;entryDy=0;entryPerimeter=0;strokeColor=#FF0000;strokeWidth=3;" parent="1" source="8iSrLDqyOfxP9rjxSmcS-388" target="8iSrLDqyOfxP9rjxSmcS-406" edge="1">
          <mxGeometry relative="1" as="geometry" />
        </mxCell>
        <mxCell id="8iSrLDqyOfxP9rjxSmcS-388" value="Xoa" style="rounded=1;whiteSpace=wrap;html=1;" parent="1" vertex="1">
          <mxGeometry x="2060" y="776.5" width="40" height="26" as="geometry" />
        </mxCell>
        <mxCell id="8iSrLDqyOfxP9rjxSmcS-389" style="edgeStyle=orthogonalEdgeStyle;rounded=0;orthogonalLoop=1;jettySize=auto;html=1;entryX=1;entryY=0;entryDx=0;entryDy=0;strokeColor=#FF0000;strokeWidth=3;" parent="1" source="8iSrLDqyOfxP9rjxSmcS-390" target="8iSrLDqyOfxP9rjxSmcS-412" edge="1">
          <mxGeometry relative="1" as="geometry">
            <Array as="points">
              <mxPoint x="2016" y="886" />
            </Array>
          </mxGeometry>
        </mxCell>
        <mxCell id="8iSrLDqyOfxP9rjxSmcS-390" value="Sua" style="rounded=1;whiteSpace=wrap;html=1;" parent="1" vertex="1">
          <mxGeometry x="1996" y="776.5" width="40" height="26" as="geometry" />
        </mxCell>
        <mxCell id="8iSrLDqyOfxP9rjxSmcS-392" value="&lt;b&gt;Thêm&amp;nbsp;&lt;/b&gt;" style="text;html=1;strokeColor=none;fillColor=none;align=center;verticalAlign=middle;whiteSpace=wrap;rounded=0;" parent="1" vertex="1">
          <mxGeometry x="1069" y="901" width="126" height="30" as="geometry" />
        </mxCell>
        <mxCell id="8iSrLDqyOfxP9rjxSmcS-406" value="" style="rounded=0;whiteSpace=wrap;html=1;" parent="1" vertex="1">
          <mxGeometry x="1872" y="1037" width="247" height="68" as="geometry" />
        </mxCell>
        <mxCell id="8iSrLDqyOfxP9rjxSmcS-407" value="Bạn có chắc chắn xóa" style="text;html=1;strokeColor=none;fillColor=none;align=center;verticalAlign=middle;whiteSpace=wrap;rounded=0;" parent="1" vertex="1">
          <mxGeometry x="1924" y="1039.5" width="134" height="30" as="geometry" />
        </mxCell>
        <mxCell id="8iSrLDqyOfxP9rjxSmcS-408" style="edgeStyle=orthogonalEdgeStyle;rounded=0;orthogonalLoop=1;jettySize=auto;html=1;entryX=0.735;entryY=1.031;entryDx=0;entryDy=0;entryPerimeter=0;strokeColor=#FF0000;strokeWidth=3;" parent="1" source="8iSrLDqyOfxP9rjxSmcS-409" target="8iSrLDqyOfxP9rjxSmcS-369" edge="1">
          <mxGeometry relative="1" as="geometry" />
        </mxCell>
        <mxCell id="8iSrLDqyOfxP9rjxSmcS-409" value="OK" style="rounded=1;whiteSpace=wrap;html=1;" parent="1" vertex="1">
          <mxGeometry x="1903" y="1069.5" width="40" height="26" as="geometry" />
        </mxCell>
        <mxCell id="8iSrLDqyOfxP9rjxSmcS-410" style="edgeStyle=orthogonalEdgeStyle;rounded=0;orthogonalLoop=1;jettySize=auto;html=1;strokeColor=#FF0000;strokeWidth=3;" parent="1" source="8iSrLDqyOfxP9rjxSmcS-411" target="8iSrLDqyOfxP9rjxSmcS-369" edge="1">
          <mxGeometry relative="1" as="geometry">
            <Array as="points">
              <mxPoint x="1961" y="769" />
            </Array>
          </mxGeometry>
        </mxCell>
        <mxCell id="8iSrLDqyOfxP9rjxSmcS-411" value="Hủy" style="rounded=1;whiteSpace=wrap;html=1;" parent="1" vertex="1">
          <mxGeometry x="2024" y="1069.5" width="40" height="26" as="geometry" />
        </mxCell>
        <mxCell id="8iSrLDqyOfxP9rjxSmcS-412" value="" style="rounded=0;whiteSpace=wrap;html=1;" parent="1" vertex="1">
          <mxGeometry x="1395.5" y="873" width="270" height="441" as="geometry" />
        </mxCell>
        <mxCell id="8iSrLDqyOfxP9rjxSmcS-413" value="&lt;b&gt;Sửa&lt;/b&gt;" style="text;html=1;strokeColor=none;fillColor=none;align=center;verticalAlign=middle;whiteSpace=wrap;rounded=0;" parent="1" vertex="1">
          <mxGeometry x="1458" y="894" width="126" height="30" as="geometry" />
        </mxCell>
        <mxCell id="8iSrLDqyOfxP9rjxSmcS-414" style="edgeStyle=orthogonalEdgeStyle;rounded=0;orthogonalLoop=1;jettySize=auto;html=1;exitX=0.5;exitY=1;exitDx=0;exitDy=0;entryX=0.641;entryY=0.997;entryDx=0;entryDy=0;entryPerimeter=0;strokeColor=#FF0000;strokeWidth=3;" parent="1" source="8iSrLDqyOfxP9rjxSmcS-415" target="8iSrLDqyOfxP9rjxSmcS-369" edge="1">
          <mxGeometry relative="1" as="geometry" />
        </mxCell>
        <mxCell id="8iSrLDqyOfxP9rjxSmcS-415" value="Save" style="rounded=1;whiteSpace=wrap;html=1;" parent="1" vertex="1">
          <mxGeometry x="1418" y="1276" width="40" height="26" as="geometry" />
        </mxCell>
        <mxCell id="8iSrLDqyOfxP9rjxSmcS-416" value="" style="endArrow=classic;html=1;rounded=0;exitX=1;exitY=0.5;exitDx=0;exitDy=0;entryX=0;entryY=0.462;entryDx=0;entryDy=0;entryPerimeter=0;fillColor=#e51400;strokeColor=#FF0000;strokeWidth=3;" parent="1" source="8iSrLDqyOfxP9rjxSmcS-368" target="8iSrLDqyOfxP9rjxSmcS-369" edge="1">
          <mxGeometry width="50" height="50" relative="1" as="geometry">
            <mxPoint x="1156" y="747.5" as="sourcePoint" />
            <mxPoint x="1206" y="697.5" as="targetPoint" />
          </mxGeometry>
        </mxCell>
        <mxCell id="8iSrLDqyOfxP9rjxSmcS-417" value="Title_ComponentImg" style="text;html=1;strokeColor=none;fillColor=none;align=center;verticalAlign=middle;whiteSpace=wrap;rounded=0;" parent="1" vertex="1">
          <mxGeometry x="1603.5" y="750" width="39" height="32" as="geometry" />
        </mxCell>
        <mxCell id="8iSrLDqyOfxP9rjxSmcS-418" value="SamSung S23 Ultra" style="text;html=1;strokeColor=none;fillColor=none;align=center;verticalAlign=middle;whiteSpace=wrap;rounded=0;" parent="1" vertex="1">
          <mxGeometry x="1575.5" y="794" width="78.5" height="32" as="geometry" />
        </mxCell>
        <mxCell id="8iSrLDqyOfxP9rjxSmcS-427" value="Position" style="text;html=1;strokeColor=none;fillColor=none;align=left;verticalAlign=middle;whiteSpace=wrap;rounded=0;" parent="1" vertex="1">
          <mxGeometry x="1421" y="1004" width="89" height="32" as="geometry" />
        </mxCell>
        <mxCell id="8iSrLDqyOfxP9rjxSmcS-428" value="" style="rounded=1;whiteSpace=wrap;html=1;" parent="1" vertex="1">
          <mxGeometry x="1511" y="1010" width="104" height="23" as="geometry" />
        </mxCell>
        <mxCell id="8iSrLDqyOfxP9rjxSmcS-429" value="Title_Componenting" style="text;html=1;strokeColor=none;fillColor=none;align=left;verticalAlign=middle;whiteSpace=wrap;rounded=0;" parent="1" vertex="1">
          <mxGeometry x="1415" y="1100" width="89" height="32" as="geometry" />
        </mxCell>
        <mxCell id="8iSrLDqyOfxP9rjxSmcS-430" value="" style="rounded=1;whiteSpace=wrap;html=1;" parent="1" vertex="1">
          <mxGeometry x="1534" y="1104.5" width="104" height="23" as="geometry" />
        </mxCell>
        <mxCell id="8iSrLDqyOfxP9rjxSmcS-431" value="Title_Detail" style="text;html=1;strokeColor=none;fillColor=none;align=left;verticalAlign=middle;whiteSpace=wrap;rounded=0;" parent="1" vertex="1">
          <mxGeometry x="1412" y="1137.5" width="89" height="32" as="geometry" />
        </mxCell>
        <mxCell id="8iSrLDqyOfxP9rjxSmcS-432" value="" style="rounded=1;whiteSpace=wrap;html=1;" parent="1" vertex="1">
          <mxGeometry x="1499" y="1143.5" width="104" height="23" as="geometry" />
        </mxCell>
        <mxCell id="8iSrLDqyOfxP9rjxSmcS-459" value="Component" style="text;html=1;strokeColor=none;fillColor=none;align=center;verticalAlign=middle;whiteSpace=wrap;rounded=0;" parent="1" vertex="1">
          <mxGeometry x="1512" y="750" width="39" height="32" as="geometry" />
        </mxCell>
        <mxCell id="8iSrLDqyOfxP9rjxSmcS-460" value="" style="verticalLabelPosition=bottom;verticalAlign=top;html=1;shape=mxgraph.basic.x" parent="1" vertex="1">
          <mxGeometry x="1512" y="788" width="37" height="31" as="geometry" />
        </mxCell>
        <mxCell id="8iSrLDqyOfxP9rjxSmcS-462" value="Title_Detail" style="text;html=1;strokeColor=none;fillColor=none;align=center;verticalAlign=middle;whiteSpace=wrap;rounded=0;" parent="1" vertex="1">
          <mxGeometry x="1705" y="751.5" width="39" height="32" as="geometry" />
        </mxCell>
        <mxCell id="8iSrLDqyOfxP9rjxSmcS-463" value="abc" style="text;html=1;strokeColor=none;fillColor=none;align=center;verticalAlign=middle;whiteSpace=wrap;rounded=0;" parent="1" vertex="1">
          <mxGeometry x="1687" y="795.5" width="78.5" height="32" as="geometry" />
        </mxCell>
        <mxCell id="8iSrLDqyOfxP9rjxSmcS-466" value="Component" style="text;html=1;strokeColor=none;fillColor=none;align=center;verticalAlign=middle;whiteSpace=wrap;rounded=0;" parent="1" vertex="1">
          <mxGeometry x="1781" y="750" width="39" height="32" as="geometry" />
        </mxCell>
        <mxCell id="8iSrLDqyOfxP9rjxSmcS-467" value="" style="verticalLabelPosition=bottom;verticalAlign=top;html=1;shape=mxgraph.basic.x" parent="1" vertex="1">
          <mxGeometry x="1781" y="788" width="37" height="31" as="geometry" />
        </mxCell>
        <mxCell id="8iSrLDqyOfxP9rjxSmcS-472" value="Chon tep" style="rounded=1;whiteSpace=wrap;html=1;" parent="1" vertex="1">
          <mxGeometry x="1542" y="1063.5" width="69" height="15" as="geometry" />
        </mxCell>
        <mxCell id="8iSrLDqyOfxP9rjxSmcS-473" value="" style="verticalLabelPosition=bottom;verticalAlign=top;html=1;shape=mxgraph.basic.x" parent="1" vertex="1">
          <mxGeometry x="1497" y="1047.5" width="37" height="31" as="geometry" />
        </mxCell>
        <mxCell id="8iSrLDqyOfxP9rjxSmcS-474" value="Component" style="text;html=1;strokeColor=none;fillColor=none;align=center;verticalAlign=middle;whiteSpace=wrap;rounded=0;" parent="1" vertex="1">
          <mxGeometry x="1425" y="1047.5" width="39" height="32" as="geometry" />
        </mxCell>
        <mxCell id="8iSrLDqyOfxP9rjxSmcS-475" value="Growmax_Img" style="text;html=1;strokeColor=none;fillColor=none;align=center;verticalAlign=middle;whiteSpace=wrap;rounded=0;" parent="1" vertex="1">
          <mxGeometry x="1427" y="1192" width="39" height="32" as="geometry" />
        </mxCell>
        <mxCell id="8iSrLDqyOfxP9rjxSmcS-476" value="" style="verticalLabelPosition=bottom;verticalAlign=top;html=1;shape=mxgraph.basic.x" parent="1" vertex="1">
          <mxGeometry x="1499" y="1192" width="37" height="31" as="geometry" />
        </mxCell>
        <mxCell id="8iSrLDqyOfxP9rjxSmcS-477" value="Chon tep" style="rounded=1;whiteSpace=wrap;html=1;" parent="1" vertex="1">
          <mxGeometry x="1544" y="1208" width="69" height="15" as="geometry" />
        </mxCell>
        <mxCell id="8iSrLDqyOfxP9rjxSmcS-487" value="Chon tep" style="rounded=1;whiteSpace=wrap;html=1;" parent="1" vertex="1">
          <mxGeometry x="1532" y="969" width="69" height="15" as="geometry" />
        </mxCell>
        <mxCell id="8iSrLDqyOfxP9rjxSmcS-488" value="" style="verticalLabelPosition=bottom;verticalAlign=top;html=1;shape=mxgraph.basic.x" parent="1" vertex="1">
          <mxGeometry x="1487" y="953" width="37" height="31" as="geometry" />
        </mxCell>
        <mxCell id="8iSrLDqyOfxP9rjxSmcS-489" value="Avatar" style="text;html=1;strokeColor=none;fillColor=none;align=center;verticalAlign=middle;whiteSpace=wrap;rounded=0;" parent="1" vertex="1">
          <mxGeometry x="1415" y="953" width="39" height="32" as="geometry" />
        </mxCell>
        <mxCell id="8iSrLDqyOfxP9rjxSmcS-494" value="Status" style="text;html=1;strokeColor=none;fillColor=none;align=left;verticalAlign=middle;whiteSpace=wrap;rounded=0;" parent="1" vertex="1">
          <mxGeometry x="1412.5" y="1239" width="89" height="32" as="geometry" />
        </mxCell>
        <mxCell id="8iSrLDqyOfxP9rjxSmcS-495" value="" style="rounded=1;whiteSpace=wrap;html=1;" parent="1" vertex="1">
          <mxGeometry x="1499.5" y="1245" width="104" height="23" as="geometry" />
        </mxCell>
        <mxCell id="8iSrLDqyOfxP9rjxSmcS-513" value="Position" style="text;html=1;strokeColor=none;fillColor=none;align=left;verticalAlign=middle;whiteSpace=wrap;rounded=0;" parent="1" vertex="1">
          <mxGeometry x="1019" y="1022" width="89" height="32" as="geometry" />
        </mxCell>
        <mxCell id="8iSrLDqyOfxP9rjxSmcS-514" value="" style="rounded=1;whiteSpace=wrap;html=1;" parent="1" vertex="1">
          <mxGeometry x="1109" y="1028" width="104" height="23" as="geometry" />
        </mxCell>
        <mxCell id="8iSrLDqyOfxP9rjxSmcS-515" value="Title_Componenting" style="text;html=1;strokeColor=none;fillColor=none;align=left;verticalAlign=middle;whiteSpace=wrap;rounded=0;" parent="1" vertex="1">
          <mxGeometry x="1013" y="1118" width="89" height="32" as="geometry" />
        </mxCell>
        <mxCell id="8iSrLDqyOfxP9rjxSmcS-516" value="" style="rounded=1;whiteSpace=wrap;html=1;" parent="1" vertex="1">
          <mxGeometry x="1132" y="1122.5" width="104" height="23" as="geometry" />
        </mxCell>
        <mxCell id="8iSrLDqyOfxP9rjxSmcS-517" value="Title_Detail" style="text;html=1;strokeColor=none;fillColor=none;align=left;verticalAlign=middle;whiteSpace=wrap;rounded=0;" parent="1" vertex="1">
          <mxGeometry x="1010" y="1155.5" width="89" height="32" as="geometry" />
        </mxCell>
        <mxCell id="8iSrLDqyOfxP9rjxSmcS-518" value="" style="rounded=1;whiteSpace=wrap;html=1;" parent="1" vertex="1">
          <mxGeometry x="1097" y="1161.5" width="104" height="23" as="geometry" />
        </mxCell>
        <mxCell id="8iSrLDqyOfxP9rjxSmcS-519" value="Chon tep" style="rounded=1;whiteSpace=wrap;html=1;" parent="1" vertex="1">
          <mxGeometry x="1140" y="1081.5" width="69" height="15" as="geometry" />
        </mxCell>
        <mxCell id="8iSrLDqyOfxP9rjxSmcS-520" value="" style="verticalLabelPosition=bottom;verticalAlign=top;html=1;shape=mxgraph.basic.x" parent="1" vertex="1">
          <mxGeometry x="1095" y="1065.5" width="37" height="31" as="geometry" />
        </mxCell>
        <mxCell id="8iSrLDqyOfxP9rjxSmcS-521" value="Component" style="text;html=1;strokeColor=none;fillColor=none;align=center;verticalAlign=middle;whiteSpace=wrap;rounded=0;" parent="1" vertex="1">
          <mxGeometry x="1023" y="1065.5" width="39" height="32" as="geometry" />
        </mxCell>
        <mxCell id="8iSrLDqyOfxP9rjxSmcS-522" value="Growmax_Img" style="text;html=1;strokeColor=none;fillColor=none;align=center;verticalAlign=middle;whiteSpace=wrap;rounded=0;" parent="1" vertex="1">
          <mxGeometry x="1025" y="1210" width="39" height="32" as="geometry" />
        </mxCell>
        <mxCell id="8iSrLDqyOfxP9rjxSmcS-523" value="" style="verticalLabelPosition=bottom;verticalAlign=top;html=1;shape=mxgraph.basic.x" parent="1" vertex="1">
          <mxGeometry x="1097" y="1210" width="37" height="31" as="geometry" />
        </mxCell>
        <mxCell id="8iSrLDqyOfxP9rjxSmcS-524" value="Chon tep" style="rounded=1;whiteSpace=wrap;html=1;" parent="1" vertex="1">
          <mxGeometry x="1142" y="1226" width="69" height="15" as="geometry" />
        </mxCell>
        <mxCell id="8iSrLDqyOfxP9rjxSmcS-525" value="Chon tep" style="rounded=1;whiteSpace=wrap;html=1;" parent="1" vertex="1">
          <mxGeometry x="1130" y="987" width="69" height="15" as="geometry" />
        </mxCell>
        <mxCell id="8iSrLDqyOfxP9rjxSmcS-526" value="" style="verticalLabelPosition=bottom;verticalAlign=top;html=1;shape=mxgraph.basic.x" parent="1" vertex="1">
          <mxGeometry x="1085" y="971" width="37" height="31" as="geometry" />
        </mxCell>
        <mxCell id="8iSrLDqyOfxP9rjxSmcS-527" value="Avatar" style="text;html=1;strokeColor=none;fillColor=none;align=center;verticalAlign=middle;whiteSpace=wrap;rounded=0;" parent="1" vertex="1">
          <mxGeometry x="1013" y="971" width="39" height="32" as="geometry" />
        </mxCell>
        <mxCell id="8iSrLDqyOfxP9rjxSmcS-528" value="" style="rounded=1;whiteSpace=wrap;html=1;" parent="1" vertex="1">
          <mxGeometry x="1097.5" y="1263" width="104" height="23" as="geometry" />
        </mxCell>
        <mxCell id="8iSrLDqyOfxP9rjxSmcS-529" value="Status" style="text;html=1;strokeColor=none;fillColor=none;align=left;verticalAlign=middle;whiteSpace=wrap;rounded=0;" parent="1" vertex="1">
          <mxGeometry x="1010.5" y="1257" width="89" height="32" as="geometry" />
        </mxCell>
        <mxCell id="8iSrLDqyOfxP9rjxSmcS-530" value="" style="rounded=0;whiteSpace=wrap;html=1;" parent="1" vertex="1">
          <mxGeometry x="997" y="898" width="270" height="441" as="geometry" />
        </mxCell>
        <mxCell id="8iSrLDqyOfxP9rjxSmcS-531" value="Avatar" style="text;html=1;strokeColor=none;fillColor=none;align=center;verticalAlign=middle;whiteSpace=wrap;rounded=0;" parent="1" vertex="1">
          <mxGeometry x="1026" y="939" width="39" height="32" as="geometry" />
        </mxCell>
        <mxCell id="8iSrLDqyOfxP9rjxSmcS-532" value="" style="verticalLabelPosition=bottom;verticalAlign=top;html=1;shape=mxgraph.basic.x" parent="1" vertex="1">
          <mxGeometry x="1098" y="939" width="37" height="31" as="geometry" />
        </mxCell>
        <mxCell id="8iSrLDqyOfxP9rjxSmcS-533" value="Chon tep" style="rounded=1;whiteSpace=wrap;html=1;" parent="1" vertex="1">
          <mxGeometry x="1143" y="955" width="69" height="15" as="geometry" />
        </mxCell>
        <mxCell id="8iSrLDqyOfxP9rjxSmcS-534" value="Position" style="text;html=1;strokeColor=none;fillColor=none;align=left;verticalAlign=middle;whiteSpace=wrap;rounded=0;" parent="1" vertex="1">
          <mxGeometry x="1032" y="990" width="89" height="32" as="geometry" />
        </mxCell>
        <mxCell id="8iSrLDqyOfxP9rjxSmcS-535" value="" style="rounded=1;whiteSpace=wrap;html=1;" parent="1" vertex="1">
          <mxGeometry x="1122" y="996" width="104" height="23" as="geometry" />
        </mxCell>
        <mxCell id="8iSrLDqyOfxP9rjxSmcS-536" value="Component" style="text;html=1;strokeColor=none;fillColor=none;align=center;verticalAlign=middle;whiteSpace=wrap;rounded=0;" parent="1" vertex="1">
          <mxGeometry x="1036" y="1033.5" width="39" height="32" as="geometry" />
        </mxCell>
        <mxCell id="8iSrLDqyOfxP9rjxSmcS-537" value="Chon tep" style="rounded=1;whiteSpace=wrap;html=1;" parent="1" vertex="1">
          <mxGeometry x="1153" y="1049.5" width="69" height="15" as="geometry" />
        </mxCell>
        <mxCell id="8iSrLDqyOfxP9rjxSmcS-538" value="" style="rounded=1;whiteSpace=wrap;html=1;" parent="1" vertex="1">
          <mxGeometry x="1145" y="1090.5" width="104" height="23" as="geometry" />
        </mxCell>
        <mxCell id="8iSrLDqyOfxP9rjxSmcS-539" value="" style="rounded=1;whiteSpace=wrap;html=1;" parent="1" vertex="1">
          <mxGeometry x="1110" y="1129.5" width="104" height="23" as="geometry" />
        </mxCell>
        <mxCell id="8iSrLDqyOfxP9rjxSmcS-540" value="Title_Detail" style="text;html=1;strokeColor=none;fillColor=none;align=left;verticalAlign=middle;whiteSpace=wrap;rounded=0;" parent="1" vertex="1">
          <mxGeometry x="1023" y="1123.5" width="89" height="32" as="geometry" />
        </mxCell>
        <mxCell id="8iSrLDqyOfxP9rjxSmcS-541" value="Title_Componenting" style="text;html=1;strokeColor=none;fillColor=none;align=left;verticalAlign=middle;whiteSpace=wrap;rounded=0;" parent="1" vertex="1">
          <mxGeometry x="1026" y="1086" width="89" height="32" as="geometry" />
        </mxCell>
        <mxCell id="8iSrLDqyOfxP9rjxSmcS-542" value="Growmax_Img" style="text;html=1;strokeColor=none;fillColor=none;align=center;verticalAlign=middle;whiteSpace=wrap;rounded=0;" parent="1" vertex="1">
          <mxGeometry x="1038" y="1178" width="39" height="32" as="geometry" />
        </mxCell>
        <mxCell id="8iSrLDqyOfxP9rjxSmcS-543" value="" style="verticalLabelPosition=bottom;verticalAlign=top;html=1;shape=mxgraph.basic.x" parent="1" vertex="1">
          <mxGeometry x="1110" y="1178" width="37" height="31" as="geometry" />
        </mxCell>
        <mxCell id="8iSrLDqyOfxP9rjxSmcS-544" value="Chon tep" style="rounded=1;whiteSpace=wrap;html=1;" parent="1" vertex="1">
          <mxGeometry x="1155" y="1194" width="69" height="15" as="geometry" />
        </mxCell>
        <mxCell id="8iSrLDqyOfxP9rjxSmcS-545" value="" style="rounded=1;whiteSpace=wrap;html=1;" parent="1" vertex="1">
          <mxGeometry x="1110.5" y="1231" width="104" height="23" as="geometry" />
        </mxCell>
        <mxCell id="8iSrLDqyOfxP9rjxSmcS-546" value="Status" style="text;html=1;strokeColor=none;fillColor=none;align=left;verticalAlign=middle;whiteSpace=wrap;rounded=0;" parent="1" vertex="1">
          <mxGeometry x="1023.5" y="1225" width="89" height="32" as="geometry" />
        </mxCell>
        <mxCell id="8iSrLDqyOfxP9rjxSmcS-548" value="&lt;b&gt;&lt;font style=&quot;font-size: 14px;&quot;&gt;Thêm&lt;/font&gt;&lt;/b&gt;" style="text;html=1;align=center;verticalAlign=middle;resizable=0;points=[];autosize=1;strokeColor=none;fillColor=none;" parent="1" vertex="1">
          <mxGeometry x="1106" y="901" width="55" height="29" as="geometry" />
        </mxCell>
        <mxCell id="8iSrLDqyOfxP9rjxSmcS-551" style="edgeStyle=orthogonalEdgeStyle;rounded=0;orthogonalLoop=1;jettySize=auto;html=1;strokeColor=#FF0000;strokeWidth=3;" parent="1" source="8iSrLDqyOfxP9rjxSmcS-549" edge="1">
          <mxGeometry relative="1" as="geometry">
            <mxPoint x="1368.571515764509" y="852.0000828334264" as="targetPoint" />
            <Array as="points">
              <mxPoint x="1045" y="1327" />
              <mxPoint x="1369" y="1327" />
            </Array>
          </mxGeometry>
        </mxCell>
        <mxCell id="8iSrLDqyOfxP9rjxSmcS-549" value="Save" style="rounded=1;whiteSpace=wrap;html=1;" parent="1" vertex="1">
          <mxGeometry x="1024.5" y="1283" width="40" height="26" as="geometry" />
        </mxCell>
        <mxCell id="8iSrLDqyOfxP9rjxSmcS-553" style="edgeStyle=orthogonalEdgeStyle;rounded=0;orthogonalLoop=1;jettySize=auto;html=1;strokeColor=#FF0000;strokeWidth=3;" parent="1" source="8iSrLDqyOfxP9rjxSmcS-550" edge="1">
          <mxGeometry relative="1" as="geometry">
            <mxPoint x="1337.7144077845983" y="850.8571777343752" as="targetPoint" />
          </mxGeometry>
        </mxCell>
        <mxCell id="8iSrLDqyOfxP9rjxSmcS-550" value="Back" style="rounded=1;whiteSpace=wrap;html=1;" parent="1" vertex="1">
          <mxGeometry x="1150.5" y="1283" width="40" height="26" as="geometry" />
        </mxCell>
        <mxCell id="8iSrLDqyOfxP9rjxSmcS-615" value="" style="rounded=0;whiteSpace=wrap;html=1;" parent="1" vertex="1">
          <mxGeometry x="-185" y="687.5" width="217" height="137" as="geometry" />
        </mxCell>
        <mxCell id="8iSrLDqyOfxP9rjxSmcS-616" value="&lt;b&gt;Menu Quản Trị&lt;/b&gt;" style="text;html=1;strokeColor=none;fillColor=none;align=center;verticalAlign=middle;whiteSpace=wrap;rounded=0;" parent="1" vertex="1">
          <mxGeometry x="-120.5" y="695.5" width="88" height="30" as="geometry" />
        </mxCell>
        <mxCell id="8iSrLDqyOfxP9rjxSmcS-617" value="&lt;u&gt;Quản lý tin tức&lt;/u&gt;" style="text;html=1;strokeColor=none;fillColor=none;align=center;verticalAlign=middle;whiteSpace=wrap;rounded=0;" parent="1" vertex="1">
          <mxGeometry x="-178" y="728.5" width="102" height="30" as="geometry" />
        </mxCell>
        <mxCell id="8iSrLDqyOfxP9rjxSmcS-618" value="" style="rounded=0;whiteSpace=wrap;html=1;" parent="1" vertex="1">
          <mxGeometry x="137" y="679" width="600" height="156" as="geometry" />
        </mxCell>
        <mxCell id="8iSrLDqyOfxP9rjxSmcS-619" value="&lt;b&gt;Danh Sách Tin tức&lt;/b&gt;" style="text;html=1;strokeColor=none;fillColor=none;align=center;verticalAlign=middle;whiteSpace=wrap;rounded=0;" parent="1" vertex="1">
          <mxGeometry x="267" y="688" width="195" height="30" as="geometry" />
        </mxCell>
        <mxCell id="8iSrLDqyOfxP9rjxSmcS-620" style="edgeStyle=orthogonalEdgeStyle;rounded=0;orthogonalLoop=1;jettySize=auto;html=1;entryX=0.972;entryY=0.006;entryDx=0;entryDy=0;entryPerimeter=0;fillColor=#e51400;strokeColor=#FF0000;strokeWidth=3;" parent="1" source="8iSrLDqyOfxP9rjxSmcS-621" target="8iSrLDqyOfxP9rjxSmcS-640" edge="1">
          <mxGeometry relative="1" as="geometry" />
        </mxCell>
        <mxCell id="8iSrLDqyOfxP9rjxSmcS-621" value="Thêm mới" style="rounded=1;whiteSpace=wrap;html=1;" parent="1" vertex="1">
          <mxGeometry x="142" y="714" width="92" height="26" as="geometry" />
        </mxCell>
        <mxCell id="8iSrLDqyOfxP9rjxSmcS-622" value="ID" style="text;html=1;strokeColor=none;fillColor=none;align=center;verticalAlign=middle;whiteSpace=wrap;rounded=0;" parent="1" vertex="1">
          <mxGeometry x="145" y="740" width="36" height="32" as="geometry" />
        </mxCell>
        <mxCell id="8iSrLDqyOfxP9rjxSmcS-623" value="Avatar" style="text;html=1;strokeColor=none;fillColor=none;align=center;verticalAlign=middle;whiteSpace=wrap;rounded=0;" parent="1" vertex="1">
          <mxGeometry x="323" y="740" width="39" height="32" as="geometry" />
        </mxCell>
        <mxCell id="8iSrLDqyOfxP9rjxSmcS-624" value="Title" style="text;html=1;strokeColor=none;fillColor=none;align=center;verticalAlign=middle;whiteSpace=wrap;rounded=0;" parent="1" vertex="1">
          <mxGeometry x="268" y="732.5" width="39" height="32" as="geometry" />
        </mxCell>
        <mxCell id="8iSrLDqyOfxP9rjxSmcS-625" value="Status" style="text;html=1;strokeColor=none;fillColor=none;align=center;verticalAlign=middle;whiteSpace=wrap;rounded=0;" parent="1" vertex="1">
          <mxGeometry x="374" y="740" width="39" height="32" as="geometry" />
        </mxCell>
        <mxCell id="8iSrLDqyOfxP9rjxSmcS-626" value="Created_at" style="text;html=1;strokeColor=none;fillColor=none;align=center;verticalAlign=middle;whiteSpace=wrap;rounded=0;" parent="1" vertex="1">
          <mxGeometry x="437" y="740" width="39" height="32" as="geometry" />
        </mxCell>
        <mxCell id="8iSrLDqyOfxP9rjxSmcS-627" value="Updated_at" style="text;html=1;strokeColor=none;fillColor=none;align=center;verticalAlign=middle;whiteSpace=wrap;rounded=0;" parent="1" vertex="1">
          <mxGeometry x="519" y="740" width="39" height="32" as="geometry" />
        </mxCell>
        <mxCell id="8iSrLDqyOfxP9rjxSmcS-628" value="Category Name" style="text;html=1;strokeColor=none;fillColor=none;align=center;verticalAlign=middle;whiteSpace=wrap;rounded=0;" parent="1" vertex="1">
          <mxGeometry x="200" y="740" width="39" height="32" as="geometry" />
        </mxCell>
        <mxCell id="8iSrLDqyOfxP9rjxSmcS-629" value="1" style="text;html=1;strokeColor=none;fillColor=none;align=center;verticalAlign=middle;whiteSpace=wrap;rounded=0;" parent="1" vertex="1">
          <mxGeometry x="145" y="779" width="36" height="32" as="geometry" />
        </mxCell>
        <mxCell id="8iSrLDqyOfxP9rjxSmcS-630" value="DienThoai" style="text;html=1;strokeColor=none;fillColor=none;align=center;verticalAlign=middle;whiteSpace=wrap;rounded=0;" parent="1" vertex="1">
          <mxGeometry x="196" y="779" width="36" height="32" as="geometry" />
        </mxCell>
        <mxCell id="8iSrLDqyOfxP9rjxSmcS-631" value="Danh Gia" style="text;html=1;strokeColor=none;fillColor=none;align=center;verticalAlign=middle;whiteSpace=wrap;rounded=0;" parent="1" vertex="1">
          <mxGeometry x="262" y="773.5" width="36" height="32" as="geometry" />
        </mxCell>
        <mxCell id="8iSrLDqyOfxP9rjxSmcS-632" value="active" style="text;html=1;strokeColor=none;fillColor=none;align=center;verticalAlign=middle;whiteSpace=wrap;rounded=0;" parent="1" vertex="1">
          <mxGeometry x="375.5" y="781" width="36" height="32" as="geometry" />
        </mxCell>
        <mxCell id="8iSrLDqyOfxP9rjxSmcS-633" value="19/1/2023&amp;nbsp; 19:19:19" style="text;html=1;strokeColor=none;fillColor=none;align=center;verticalAlign=middle;whiteSpace=wrap;rounded=0;" parent="1" vertex="1">
          <mxGeometry x="438.5" y="781" width="36" height="32" as="geometry" />
        </mxCell>
        <mxCell id="8iSrLDqyOfxP9rjxSmcS-634" value="19/1/2023&amp;nbsp; 19:19:19" style="text;html=1;strokeColor=none;fillColor=none;align=center;verticalAlign=middle;whiteSpace=wrap;rounded=0;" parent="1" vertex="1">
          <mxGeometry x="517" y="779" width="36" height="32" as="geometry" />
        </mxCell>
        <mxCell id="8iSrLDqyOfxP9rjxSmcS-635" value="" style="verticalLabelPosition=bottom;verticalAlign=top;html=1;shape=mxgraph.basic.x" parent="1" vertex="1">
          <mxGeometry x="325" y="776" width="37" height="31" as="geometry" />
        </mxCell>
        <mxCell id="8iSrLDqyOfxP9rjxSmcS-636" style="edgeStyle=orthogonalEdgeStyle;rounded=0;orthogonalLoop=1;jettySize=auto;html=1;exitX=0.5;exitY=1;exitDx=0;exitDy=0;strokeColor=#FF0000;strokeWidth=3;" parent="1" source="8iSrLDqyOfxP9rjxSmcS-637" edge="1">
          <mxGeometry relative="1" as="geometry">
            <mxPoint x="681" y="909.7999877929688" as="targetPoint" />
          </mxGeometry>
        </mxCell>
        <mxCell id="8iSrLDqyOfxP9rjxSmcS-637" value="Xoa" style="rounded=1;whiteSpace=wrap;html=1;" parent="1" vertex="1">
          <mxGeometry x="661" y="781.5" width="40" height="26" as="geometry" />
        </mxCell>
        <mxCell id="8iSrLDqyOfxP9rjxSmcS-638" style="edgeStyle=orthogonalEdgeStyle;rounded=0;orthogonalLoop=1;jettySize=auto;html=1;entryX=1;entryY=0;entryDx=0;entryDy=0;strokeColor=#FF0000;strokeWidth=3;" parent="1" source="8iSrLDqyOfxP9rjxSmcS-639" target="8iSrLDqyOfxP9rjxSmcS-661" edge="1">
          <mxGeometry relative="1" as="geometry">
            <Array as="points">
              <mxPoint x="612" y="874" />
            </Array>
          </mxGeometry>
        </mxCell>
        <mxCell id="8iSrLDqyOfxP9rjxSmcS-639" value="Sua" style="rounded=1;whiteSpace=wrap;html=1;" parent="1" vertex="1">
          <mxGeometry x="602" y="782" width="40" height="26" as="geometry" />
        </mxCell>
        <mxCell id="8iSrLDqyOfxP9rjxSmcS-640" value="" style="rounded=0;whiteSpace=wrap;html=1;" parent="1" vertex="1">
          <mxGeometry x="-185" y="880" width="270" height="325" as="geometry" />
        </mxCell>
        <mxCell id="8iSrLDqyOfxP9rjxSmcS-641" value="&lt;b&gt;Thêm Danh Mục Mới&lt;/b&gt;" style="text;html=1;strokeColor=none;fillColor=none;align=center;verticalAlign=middle;whiteSpace=wrap;rounded=0;" parent="1" vertex="1">
          <mxGeometry x="-113" y="893" width="126" height="30" as="geometry" />
        </mxCell>
        <mxCell id="8iSrLDqyOfxP9rjxSmcS-642" value="Category Name" style="text;html=1;strokeColor=none;fillColor=none;align=center;verticalAlign=middle;whiteSpace=wrap;rounded=0;" parent="1" vertex="1">
          <mxGeometry x="-170" y="923" width="39" height="32" as="geometry" />
        </mxCell>
        <mxCell id="8iSrLDqyOfxP9rjxSmcS-643" value="" style="rounded=1;whiteSpace=wrap;html=1;" parent="1" vertex="1">
          <mxGeometry x="-88" y="932" width="104" height="23" as="geometry" />
        </mxCell>
        <mxCell id="8iSrLDqyOfxP9rjxSmcS-644" value="Avatar" style="text;html=1;strokeColor=none;fillColor=none;align=center;verticalAlign=middle;whiteSpace=wrap;rounded=0;" parent="1" vertex="1">
          <mxGeometry x="-170" y="972" width="39" height="32" as="geometry" />
        </mxCell>
        <mxCell id="8iSrLDqyOfxP9rjxSmcS-645" value="Title" style="text;html=1;strokeColor=none;fillColor=none;align=center;verticalAlign=middle;whiteSpace=wrap;rounded=0;" parent="1" vertex="1">
          <mxGeometry x="-170" y="1010" width="39" height="32" as="geometry" />
        </mxCell>
        <mxCell id="8iSrLDqyOfxP9rjxSmcS-646" value="Status" style="text;html=1;strokeColor=none;fillColor=none;align=center;verticalAlign=middle;whiteSpace=wrap;rounded=0;" parent="1" vertex="1">
          <mxGeometry x="-170" y="1048" width="39" height="32" as="geometry" />
        </mxCell>
        <mxCell id="8iSrLDqyOfxP9rjxSmcS-647" value="" style="rounded=1;whiteSpace=wrap;html=1;" parent="1" vertex="1">
          <mxGeometry x="-91" y="1019" width="104" height="23" as="geometry" />
        </mxCell>
        <mxCell id="8iSrLDqyOfxP9rjxSmcS-648" value="" style="rounded=1;whiteSpace=wrap;html=1;" parent="1" vertex="1">
          <mxGeometry x="-91" y="1052.5" width="104" height="23" as="geometry" />
        </mxCell>
        <mxCell id="8iSrLDqyOfxP9rjxSmcS-649" value="" style="verticalLabelPosition=bottom;verticalAlign=top;html=1;shape=mxgraph.basic.x" parent="1" vertex="1">
          <mxGeometry x="-91" y="972" width="37" height="31" as="geometry" />
        </mxCell>
        <mxCell id="8iSrLDqyOfxP9rjxSmcS-650" value="Chon tep" style="rounded=1;whiteSpace=wrap;html=1;" parent="1" vertex="1">
          <mxGeometry x="-46" y="988" width="69" height="15" as="geometry" />
        </mxCell>
        <mxCell id="8iSrLDqyOfxP9rjxSmcS-651" style="edgeStyle=orthogonalEdgeStyle;rounded=0;orthogonalLoop=1;jettySize=auto;html=1;exitX=0.5;exitY=1;exitDx=0;exitDy=0;strokeWidth=3;strokeColor=#FF0000;" parent="1" source="8iSrLDqyOfxP9rjxSmcS-652" edge="1">
          <mxGeometry relative="1" as="geometry">
            <mxPoint x="160.60003662109375" y="840.9999389648438" as="targetPoint" />
          </mxGeometry>
        </mxCell>
        <mxCell id="8iSrLDqyOfxP9rjxSmcS-652" value="Save" style="rounded=1;whiteSpace=wrap;html=1;" parent="1" vertex="1">
          <mxGeometry x="-165" y="1110" width="40" height="26" as="geometry" />
        </mxCell>
        <mxCell id="8iSrLDqyOfxP9rjxSmcS-653" style="edgeStyle=orthogonalEdgeStyle;rounded=0;orthogonalLoop=1;jettySize=auto;html=1;exitX=1;exitY=0.5;exitDx=0;exitDy=0;entryX=0;entryY=1;entryDx=0;entryDy=0;strokeColor=#FF0000;strokeWidth=3;" parent="1" source="8iSrLDqyOfxP9rjxSmcS-654" target="8iSrLDqyOfxP9rjxSmcS-618" edge="1">
          <mxGeometry relative="1" as="geometry" />
        </mxCell>
        <mxCell id="8iSrLDqyOfxP9rjxSmcS-654" value="Back" style="rounded=1;whiteSpace=wrap;html=1;" parent="1" vertex="1">
          <mxGeometry x="-54" y="1110" width="40" height="26" as="geometry" />
        </mxCell>
        <mxCell id="8iSrLDqyOfxP9rjxSmcS-655" value="" style="rounded=0;whiteSpace=wrap;html=1;" parent="1" vertex="1">
          <mxGeometry x="588" y="917" width="247" height="68" as="geometry" />
        </mxCell>
        <mxCell id="8iSrLDqyOfxP9rjxSmcS-656" value="Bạn có chắc chắn xóa" style="text;html=1;strokeColor=none;fillColor=none;align=center;verticalAlign=middle;whiteSpace=wrap;rounded=0;" parent="1" vertex="1">
          <mxGeometry x="640" y="919.5" width="134" height="30" as="geometry" />
        </mxCell>
        <mxCell id="8iSrLDqyOfxP9rjxSmcS-657" style="edgeStyle=orthogonalEdgeStyle;rounded=0;orthogonalLoop=1;jettySize=auto;html=1;exitX=0.5;exitY=1;exitDx=0;exitDy=0;entryX=0.85;entryY=1.003;entryDx=0;entryDy=0;entryPerimeter=0;strokeColor=#FF0000;strokeWidth=3;" parent="1" source="8iSrLDqyOfxP9rjxSmcS-658" target="8iSrLDqyOfxP9rjxSmcS-618" edge="1">
          <mxGeometry relative="1" as="geometry">
            <Array as="points">
              <mxPoint x="639" y="996" />
              <mxPoint x="568" y="996" />
              <mxPoint x="568" y="892" />
              <mxPoint x="647" y="892" />
            </Array>
          </mxGeometry>
        </mxCell>
        <mxCell id="8iSrLDqyOfxP9rjxSmcS-658" value="OK" style="rounded=1;whiteSpace=wrap;html=1;" parent="1" vertex="1">
          <mxGeometry x="619" y="949.5" width="40" height="26" as="geometry" />
        </mxCell>
        <mxCell id="8iSrLDqyOfxP9rjxSmcS-659" style="edgeStyle=orthogonalEdgeStyle;rounded=0;orthogonalLoop=1;jettySize=auto;html=1;strokeColor=#FF0000;strokeWidth=3;" parent="1" source="8iSrLDqyOfxP9rjxSmcS-660" target="8iSrLDqyOfxP9rjxSmcS-618" edge="1">
          <mxGeometry relative="1" as="geometry">
            <Array as="points">
              <mxPoint x="775" y="757" />
            </Array>
          </mxGeometry>
        </mxCell>
        <mxCell id="8iSrLDqyOfxP9rjxSmcS-660" value="Hủy" style="rounded=1;whiteSpace=wrap;html=1;" parent="1" vertex="1">
          <mxGeometry x="740" y="949.5" width="40" height="26" as="geometry" />
        </mxCell>
        <mxCell id="8iSrLDqyOfxP9rjxSmcS-661" value="" style="rounded=0;whiteSpace=wrap;html=1;" parent="1" vertex="1">
          <mxGeometry x="200" y="874" width="270" height="325" as="geometry" />
        </mxCell>
        <mxCell id="8iSrLDqyOfxP9rjxSmcS-662" value="&lt;b&gt;Sửa&lt;/b&gt;" style="text;html=1;strokeColor=none;fillColor=none;align=center;verticalAlign=middle;whiteSpace=wrap;rounded=0;" parent="1" vertex="1">
          <mxGeometry x="272" y="887" width="126" height="30" as="geometry" />
        </mxCell>
        <mxCell id="8iSrLDqyOfxP9rjxSmcS-663" value="Category Name" style="text;html=1;strokeColor=none;fillColor=none;align=center;verticalAlign=middle;whiteSpace=wrap;rounded=0;" parent="1" vertex="1">
          <mxGeometry x="215" y="917" width="39" height="32" as="geometry" />
        </mxCell>
        <mxCell id="8iSrLDqyOfxP9rjxSmcS-664" value="" style="rounded=1;whiteSpace=wrap;html=1;" parent="1" vertex="1">
          <mxGeometry x="297" y="926" width="104" height="23" as="geometry" />
        </mxCell>
        <mxCell id="8iSrLDqyOfxP9rjxSmcS-665" value="Avatar" style="text;html=1;strokeColor=none;fillColor=none;align=center;verticalAlign=middle;whiteSpace=wrap;rounded=0;" parent="1" vertex="1">
          <mxGeometry x="215" y="966" width="39" height="32" as="geometry" />
        </mxCell>
        <mxCell id="8iSrLDqyOfxP9rjxSmcS-666" value="Title" style="text;html=1;strokeColor=none;fillColor=none;align=center;verticalAlign=middle;whiteSpace=wrap;rounded=0;" parent="1" vertex="1">
          <mxGeometry x="215" y="1004" width="39" height="32" as="geometry" />
        </mxCell>
        <mxCell id="8iSrLDqyOfxP9rjxSmcS-667" value="Status" style="text;html=1;strokeColor=none;fillColor=none;align=center;verticalAlign=middle;whiteSpace=wrap;rounded=0;" parent="1" vertex="1">
          <mxGeometry x="215" y="1042" width="39" height="32" as="geometry" />
        </mxCell>
        <mxCell id="8iSrLDqyOfxP9rjxSmcS-668" value="" style="rounded=1;whiteSpace=wrap;html=1;" parent="1" vertex="1">
          <mxGeometry x="294" y="1013" width="104" height="23" as="geometry" />
        </mxCell>
        <mxCell id="8iSrLDqyOfxP9rjxSmcS-669" value="" style="rounded=1;whiteSpace=wrap;html=1;" parent="1" vertex="1">
          <mxGeometry x="294" y="1046.5" width="104" height="23" as="geometry" />
        </mxCell>
        <mxCell id="8iSrLDqyOfxP9rjxSmcS-670" value="" style="verticalLabelPosition=bottom;verticalAlign=top;html=1;shape=mxgraph.basic.x" parent="1" vertex="1">
          <mxGeometry x="294" y="966" width="37" height="31" as="geometry" />
        </mxCell>
        <mxCell id="8iSrLDqyOfxP9rjxSmcS-671" value="Chon tep" style="rounded=1;whiteSpace=wrap;html=1;" parent="1" vertex="1">
          <mxGeometry x="339" y="982" width="69" height="15" as="geometry" />
        </mxCell>
        <mxCell id="8iSrLDqyOfxP9rjxSmcS-672" style="edgeStyle=orthogonalEdgeStyle;rounded=0;orthogonalLoop=1;jettySize=auto;html=1;exitX=0.5;exitY=1;exitDx=0;exitDy=0;entryX=0.641;entryY=0.997;entryDx=0;entryDy=0;entryPerimeter=0;strokeColor=#FF0000;strokeWidth=3;" parent="1" source="8iSrLDqyOfxP9rjxSmcS-673" target="8iSrLDqyOfxP9rjxSmcS-618" edge="1">
          <mxGeometry relative="1" as="geometry" />
        </mxCell>
        <mxCell id="8iSrLDqyOfxP9rjxSmcS-673" value="Save" style="rounded=1;whiteSpace=wrap;html=1;" parent="1" vertex="1">
          <mxGeometry x="220" y="1104" width="40" height="26" as="geometry" />
        </mxCell>
        <mxCell id="8iSrLDqyOfxP9rjxSmcS-674" value="" style="endArrow=classic;html=1;rounded=0;exitX=1;exitY=0.5;exitDx=0;exitDy=0;entryX=0;entryY=0.462;entryDx=0;entryDy=0;entryPerimeter=0;fillColor=#e51400;strokeColor=#FF0000;strokeWidth=3;" parent="1" source="8iSrLDqyOfxP9rjxSmcS-617" target="8iSrLDqyOfxP9rjxSmcS-618" edge="1">
          <mxGeometry width="50" height="50" relative="1" as="geometry">
            <mxPoint x="-30" y="735.5" as="sourcePoint" />
            <mxPoint x="20" y="685.5" as="targetPoint" />
          </mxGeometry>
        </mxCell>
      </root>
    </mxGraphModel>
  </diagram>
</mxfile>
